<?xml version="1.0" encoding="utf-8"?>
<!-- Generator: Adobe Illustrator 21.1.0, SVG Export Plug-In . SVG Version: 6.00 Build 0)  -->
<svg version="1.1" id="Layer_1" xmlns="http://www.w3.org/2000/svg" xmlns:xlink="http://www.w3.org/1999/xlink" x="0px" y="0px"
	 viewBox="0 0 675 60" style="enable-background:new 0 0 675 60;" xml:space="preserve">
<style type="text/css">
	.st0{fill:#72CCD8;}
	.st1{fill:#FFCCFF;}
	.st2{fill:#FF336E;}
	.st3{fill:#8DE8B0;}
	.st4{fill:#FF924F;}
</style>
<title>brands / logo</title>
<desc>Created with Sketch.</desc>
<g>
	<path d="M38,33.3c-1.7-1.1-3.7-2.1-5.8-2.9c-2.2-0.8-4.4-1.5-6.6-2.1c-1.9-0.5-3.8-1.1-5.7-1.7s-3.5-1.4-5-2.3
		c-1.5-0.9-2.7-2.1-3.6-3.4c-0.3-0.4-0.5-0.9-0.7-1.5c-0.4-1-0.6-2.2-0.6-3.5c0-1.8,0.4-3.5,1.2-4.8c0.8-1.4,1.9-2.6,3.2-3.5
		c1.3-1,2.9-1.7,4.8-2.2C21,4.9,23,4.7,25,4.7c1.8,0,3.4,0.2,5.1,0.5s3.1,0.9,4.6,1.8c1.4,0.8,2.6,1.9,3.7,3.1
		c1.1,1.3,1.9,2.8,2.4,4.7l3.6-1.2c-0.8-2.3-1.8-4.2-3.2-5.7c-1.4-1.5-2.9-2.8-4.7-3.7s-3.6-1.6-5.6-2c-2-0.4-3.9-0.6-5.9-0.6
		c-2.6,0-5,0.3-7.3,0.9c-2.3,0.6-4.3,1.5-6,2.8C10,6.4,8.7,7.9,7.7,9.7c-1,1.8-1.5,3.9-1.5,6.2c0,1.3,0.1,2.5,0.4,3.5
		c0.3,1,0.7,1.9,1.2,2.8c1.1,1.7,2.5,3.2,4.2,4.3c1.7,1.2,3.7,2.1,5.9,2.9c2.2,0.8,4.4,1.4,6.7,2c1.8,0.5,3.5,1,5.3,1.6
		c1.8,0.6,3.5,1.3,5,2.2c1.5,0.9,2.7,2.1,3.7,3.5c0.9,1.4,1.4,3.1,1.4,5.3c0,1.8-0.4,3.5-1.2,4.8c-0.8,1.4-1.8,2.6-3.2,3.5
		c-1.3,1-2.9,1.7-4.7,2.1s-3.7,0.7-5.7,0.7c-1.8,0-3.5-0.2-5.2-0.5c-1.7-0.4-3.3-0.9-4.7-1.8c-1.4-0.8-2.7-1.9-3.8-3.2
		s-2-2.9-2.5-4.8l-3.4,1.4c0.7,2.4,1.8,4.4,3.2,5.9c1.5,1.5,3.1,2.8,5,3.7c1.8,0.9,3.8,1.6,5.8,2c2,0.4,3.9,0.6,5.7,0.6
		c2.4,0,4.8-0.3,7-0.9c2.2-0.6,4.2-1.5,5.9-2.7c1.7-1.2,3-2.7,4-4.6c1-1.8,1.5-4,1.5-6.4c0-2.5-0.5-4.6-1.5-6.3S39.7,34.4,38,33.3z"
		/>
	<path class="st0" d="M10.5,19.5L10.5,19.5c-0.4-1-0.6-2.2-0.6-3.5c0-1.8,0.4-3.5,1.2-4.8c0.8-1.4,1.9-2.6,3.2-3.5
		c1.3-1,2.9-1.7,4.8-2.2C21,4.9,23,4.7,25,4.7c1.8,0,3.4,0.2,5.1,0.5s3.1,0.9,4.6,1.8c1.4,0.8,2.6,1.9,3.7,3.1
		c1.1,1.3,1.9,2.8,2.4,4.7l3.6-1.2c-0.8-2.3-1.8-4.2-3.2-5.7c-1.4-1.5-2.9-2.8-4.7-3.7s-3.6-1.6-5.6-2c-2-0.4-3.9-0.6-5.9-0.6
		c-2.6,0-5,0.3-7.3,0.9c-2.3,0.6-4.3,1.5-6,2.8C10,6.4,8.7,7.9,7.7,9.7c-1,1.8-1.5,3.9-1.5,6.2c0,1.3,0.1,2.5,0.4,3.5H10.5z"/>
	<path d="M82.4,58.6h-3.3V4.8H55V1.5h51.6v3.3H82.4V58.6z"/>
	<g>
		<path d="M129.1,35c-0.1-0.7-0.1-1.4-0.1-2.1V1.5h-3.3v31.4c0,0.7,0,1.4,0.1,2.1H129.1z"/>
		<path d="M177.5,35c0-0.7,0.1-1.4,0.1-2.1V1.5h-3.3v31.4c0,0.7,0,1.4-0.1,2.1H177.5z"/>
		<g>
			<path d="M174.3,35c0.1-0.7,0.1-1.4,0.1-2.1C174.4,33.6,174.3,34.3,174.3,35z"/>
			<path d="M129.1,35c-0.1-0.7-0.1-1.4-0.1-2.1C129,33.6,129,34.3,129.1,35z"/>
			<path d="M177.6,32.9c0,0.7,0,1.4-0.1,2.1C177.6,34.3,177.6,33.6,177.6,32.9z"/>
			<path d="M174.3,35c-0.2,2.4-0.7,4.7-1.6,6.8c-1.1,2.7-2.7,5.1-4.8,7.1s-4.4,3.6-7.2,4.7s-5.7,1.7-9,1.7s-6.3-0.6-9-1.7
				c-2.8-1.1-5.2-2.7-7.2-4.7s-3.6-4.4-4.8-7.1c-0.9-2.1-1.4-4.4-1.6-6.8h-3.3c0-0.7-0.1-1.4-0.1-2.1c0,3.7,0.7,7.1,2,10.3
				c1.3,3.2,3.2,5.9,5.5,8.1c2.3,2.3,5.1,4.1,8.2,5.3s6.6,1.9,10.3,1.9c3.6,0,7-0.6,10.2-1.9s5.9-3.1,8.2-5.3c2.3-2.3,4.1-5,5.5-8.1
				c1.1-2.6,1.7-5.3,1.9-8.2H174.3z"/>
		</g>
	</g>
	<g>
		<path class="st1" d="M174.3,35c0.1-0.7,0.1-1.4,0.1-2.1C174.4,33.6,174.3,34.3,174.3,35z"/>
		<path class="st1" d="M129.1,35c-0.1-0.7-0.1-1.4-0.1-2.1C129,33.6,129,34.3,129.1,35z"/>
		<path class="st1" d="M177.6,32.9c0,0.7,0,1.4-0.1,2.1C177.6,34.3,177.6,33.6,177.6,32.9z"/>
		<path class="st2" d="M174.3,35c-0.2,2.4-0.7,4.7-1.6,6.8c-1.1,2.7-2.7,5.1-4.8,7.1s-4.4,3.6-7.2,4.7s-5.7,1.7-9,1.7
			s-6.3-0.6-9-1.7c-2.8-1.1-5.2-2.7-7.2-4.7s-3.6-4.4-4.8-7.1c-0.9-2.1-1.4-4.4-1.6-6.8h-3.3c0-0.7-0.1-1.4-0.1-2.1
			c0,3.7,0.7,7.1,2,10.3c1.3,3.2,3.2,5.9,5.5,8.1c2.3,2.3,5.1,4.1,8.2,5.3s6.6,1.9,10.3,1.9c3.6,0,7-0.6,10.2-1.9s5.9-3.1,8.2-5.3
			c2.3-2.3,4.1-5,5.5-8.1c1.1-2.6,1.7-5.3,1.9-8.2H174.3z"/>
	</g>
	<path d="M232.9,3.7c3.5,1.4,6.5,3.4,9,5.9c2.6,2.5,4.5,5.5,6,9c1.4,3.5,2.2,7.3,2.2,11.4s-0.7,7.9-2.2,11.4c-1.4,3.5-3.4,6.5-6,9
		c-2.6,2.5-5.6,4.5-9,5.9s-7.3,2.2-11.3,2.2h-18.7v-57h18.7C225.6,1.5,229.4,2.2,232.9,3.7z M244.9,19.9c-1.3-3.1-3-5.8-5.3-8
		c-2.2-2.2-4.9-4-8-5.3s-6.5-1.9-10.1-1.9h-15.4v50.5h15.4c3.6,0,7-0.6,10.1-1.9s5.8-3,8-5.3c2.2-2.2,4-4.9,5.3-8s1.9-6.5,1.9-10.1
		S246.2,23,244.9,19.9z"/>
	<path d="M276.1,58.6h-3.3v-57h3.3V58.6z"/>
	<path d="M353.8,18.7c-1.4-3.5-3.4-6.5-5.9-9c-2.5-2.5-5.5-4.5-9-5.9s-7.3-2.2-11.4-2.2s-7.9,0.7-11.4,2.2s-6.5,3.4-9,5.9
		c-2.5,2.5-4.5,5.5-5.9,9c-1.4,3.5-2.2,7.3-2.2,11.4s0.7,7.9,2.2,11.4c1.4,3.5,3.4,6.5,5.9,9c2.5,2.5,5.5,4.5,9,5.9
		s7.3,2.2,11.4,2.2s7.9-0.7,11.4-2.2s6.5-3.4,9-5.9c2.5-2.5,4.5-5.5,5.9-9c1.4-3.5,2.2-7.3,2.2-11.4S355.3,22.2,353.8,18.7z
		 M350.8,40.1c-1.3,3.1-3,5.8-5.3,8c-2.2,2.2-4.9,4-8,5.3c-3.1,1.3-6.5,1.9-10.1,1.9s-7-0.6-10.1-1.9c-3.1-1.3-5.8-3-8-5.3
		s-4-4.9-5.3-8c-1.3-3.1-1.9-6.5-1.9-10.1s0.6-7,1.9-10.1c1.3-3.1,3-5.8,5.3-8c2.2-2.2,4.9-4,8-5.3c3.1-1.3,6.5-1.9,10.1-1.9
		s7,0.6,10.1,1.9c3.1,1.3,5.8,3,8,5.3c2.2,2.2,4,4.9,5.3,8c1.3,3.1,1.9,6.5,1.9,10.1S352.1,37.1,350.8,40.1z"/>
	<path class="st3" d="M353.8,18.7c-1.4-3.5-3.4-6.5-5.9-9c-2.5-2.5-5.5-4.5-9-5.9s-7.3-2.2-11.4-2.2v3.3c3.6,0,7,0.6,10.1,1.9
		c3.1,1.3,5.8,3,8,5.3c2.2,2.2,4,4.9,5.3,8c1.3,3.1,1.9,6.5,1.9,10.1s-0.6,7-1.9,10.1c-1.3,3.1-3,5.8-5.3,8c-2.2,2.2-4.9,4-8,5.3
		c-3.1,1.3-6.5,1.9-10.1,1.9v3.3c4.1,0,7.9-0.7,11.4-2.2s6.5-3.4,9-5.9c2.5-2.5,4.5-5.5,5.9-9c1.4-3.5,2.2-7.3,2.2-11.4
		S355.3,22.2,353.8,18.7z"/>
	<path d="M465.6,58.6h-5.2V32.7h-36.5v25.9h-5.2v-57h5.2v25.9h36.5V1.5h5.2V58.6z"/>
	<g>
		<g>
			<rect x="497" y="53.3" width="28.8" height="5.2"/>
			<rect x="497" y="1.5" width="28.8" height="5.2"/>
			<rect x="497" y="27.4" width="28.8" height="5.2"/>
			<rect x="491.7" y="1.5" width="5.3" height="57"/>
		</g>
		<rect x="491.7" y="1.5" class="st1" width="5.3" height="57"/>
	</g>
	<path d="M599.9,58.6h-5.2L554.2,9.9v48.6H549v-57h5.2l40.5,48.7V1.5h5.2V58.6z"/>
	<g>
		<polygon points="630.6,1.5 625.4,1.5 625.4,58.6 630.6,58.6 630.6,40.4 630.6,33 		"/>
		<polygon points="644.6,26.2 640.9,30 662.8,58.6 669.4,58.6 		"/>
		<path d="M640.9,30l-10.3,10.4 M630.6,33l31-31.5h7.3l-38.3,38.9"/>
	</g>
	<path class="st4" d="M640.9,30l-10.3,10.4 M630.6,33l31-31.5h7.3l-38.3,38.9"/>
</g>
</svg>
