<?xml version="1.0" encoding="utf-8"?><!DOCTYPE svg PUBLIC "-//W3C//DTD SVG 1.1//EN" "http://www.w3.org/Graphics/SVG/1.1/DTD/svg11.dtd"><svg xmlns="http://www.w3.org/2000/svg" xmlns:xlink="http://www.w3.org/1999/xlink"><symbol id="icon-arrow-down" viewBox="0 0 64 64" xmlns="http://www.w3.org/2000/svg"><style>.ast0{fill:#fff}</style><path id="apath-1_3_" class="ast0" d="M29.7 56.5L10.5 34.9 8 37l24 27 24-27-2.5-2.2-20.4 22.9V0h-3.4v56.5z"/><g id="aSymbols_1_"><g id="aIcons-_x2F_-real-arrow-right" transform="translate(-4 -11)"><g id="aMask"><path id="apath-1_2_" d="M33.7 67.5L14.5 45.9 12 48l24 27 24-27-2.5-2.2-20.4 22.9V11h-3.4v56.5z"/></g></g></g></symbol><symbol id="icon-arrow-left" viewBox="0 0 64 64" xmlns="http://www.w3.org/2000/svg"><style>.bst0{fill:#fff}</style><path id="bpath-1_3_" class="bst0" d="M7.5 29.7l21.6-19.2L27 8 0 32l27 24 2.2-2.5L6.3 33.1H64v-3.4H7.5z"/><g id="bSymbols_1_"><g id="bIcons-_x2F_-real-arrow-right" transform="translate(-4 -11)"><g id="bMask"><path id="bpath-1_2_" d="M11.5 40.7l21.6-19.2L31 19 4 43l27 24 2.2-2.5-22.9-20.4H68v-3.4H11.5z"/></g></g></g></symbol><symbol viewBox="0 0 64 64" id="icon-arrow-right" xmlns="http://www.w3.org/2000/svg"><path d="M56.5 34.3L34.9 53.5 37 56l27-24L37 8l-2.2 2.5 22.9 20.3H0v3.4l56.5.1z"/></symbol><symbol id="icon-arrow-up" viewBox="0 0 64 64" xmlns="http://www.w3.org/2000/svg"><style>.dst0{fill:#fff}</style><path id="dpath-1_3_" class="dst0" d="M34.3 7.5l19.2 21.6L56 27 32 0 8 27l2.5 2.2L30.9 6.3V64h3.4V7.5z"/><g id="dSymbols_1_"><g id="dIcons-_x2F_-real-arrow-right" transform="translate(-4 -11)"><g id="dMask"><path id="dpath-1_2_" d="M38.3 18.5l19.2 21.6L60 38 36 11 12 38l2.5 2.2 20.3-22.9V75h3.4V18.5z"/></g></g></g></symbol><symbol viewBox="0 0 64 64" id="icon-cart-empty" xmlns="http://www.w3.org/2000/svg"><path d="M17.2 49.8c0 .8.3 1.5.9 2.1s1.3.9 2.1.9 1.5-.3 2.1-.9c.6-.6.9-1.3.9-2.1s-.3-1.5-.9-2.1-1.3-.9-2.1-.9-1.5.3-2.1.9c-.6.7-.9 1.3-.9 2.1zm26.7 0c0 .8.3 1.5.9 2.1.6.6 1.3.9 2.1.9s1.5-.3 2.1-.9c.6-.6.9-1.3.9-2.1s-.3-1.5-.9-2.1c-.6-.6-1.3-.9-2.1-.9s-1.5.3-2.1.9c-.5.7-.9 1.3-.9 2.1zM16.6 17.5l-1.1-4.9c-.2-.8-.6-1.2-1.4-1.2H8.2v2.8h4.5l1.8 7.9 2.9 13.2-1.6 6.9c-.1.4.1.9.3 1.2.3.4.6.6 1.2.6h35.2v-2.8H19.1l.6-2.9h30.5l5.4-17c.4-1.3 1.3-3.9 1.3-3.9H53m-32.9 17l-2.7-14.3h35.3l-4.8 14.6c-.1.2-.2.2-.2.3H20.2"/></symbol><symbol viewBox="0 0 64 64" id="icon-cart-full" xmlns="http://www.w3.org/2000/svg"><path d="M17.2 49.8c0 .8.3 1.5.9 2.1s1.3.9 2.1.9 1.5-.3 2.1-.9c.6-.6.9-1.3.9-2.1s-.3-1.5-.9-2.1-1.3-.9-2.1-.9-1.5.3-2.1.9c-.6.7-.9 1.3-.9 2.1zm26.7 0c0 .8.3 1.5.9 2.1.6.6 1.3.9 2.1.9s1.5-.3 2.1-.9c.6-.6.9-1.3.9-2.1s-.3-1.5-.9-2.1c-.6-.6-1.3-.9-2.1-.9s-1.5.3-2.1.9c-.5.7-.9 1.3-.9 2.1zM16.6 17.5l-1.1-4.9c-.2-.8-.6-1.2-1.4-1.2H8.2v2.8h4.5l1.8 7.9 2.9 13.2-1.6 6.9c-.1.4.1.9.3 1.2.3.4.6.6 1.2.6h35.2v-2.8H19.1l.6-2.9h30.5l5.4-17c.4-1.3 1.3-3.9 1.3-3.9H53"/><title>Fill 137</title></symbol><symbol id="icon-checkmark" viewBox="0 0 64 64" xmlns="http://www.w3.org/2000/svg"><style>.gst0{clip-path:url(#gSVGID_2_)}.gst1{enable-background:new}.gst2{clip-path:url(#gSVGID_4_)}.gst3{clip-path:url(#gSVGID_6_)}</style><defs><path id="gSVGID_1_" d="M2.8 37l2.6-2.7L20 48.9l38.6-39 2.6 2.8-41.4 41.4z"/></defs><clipPath id="gSVGID_2_"><use xlink:href="#gSVGID_1_" overflow="visible"/></clipPath><g class="gst0"><g class="gst1"><defs><path id="gSVGID_3_" class="gst1" d="M-2.2 4.9h69v55h-69z"/></defs><clipPath id="gSVGID_4_"><use xlink:href="#gSVGID_3_" overflow="visible"/></clipPath><g class="gst2"><defs><path id="gSVGID_5_" d="M.7 8.3h62.2v47.2H.7z"/></defs><clipPath id="gSVGID_6_"><use xlink:href="#gSVGID_5_" overflow="visible"/></clipPath><path class="gst3" d="M-2.2 4.9h68.5v54.2H-2.2z"/></g></g></g></symbol><symbol viewBox="0 0 64 64" id="icon-chevron-down" xmlns="http://www.w3.org/2000/svg"><path d="M28.3 45.8l3.5 3.7 29.3-29.3-3.6-3.7-25.7 25.7L6.5 16.9l-3.6 3.5L17.6 35z"/></symbol><symbol viewBox="0 0 64 64" id="icon-chevron-right" xmlns="http://www.w3.org/2000/svg"><path d="M44.8 36.7l3.7-3.5L19.2 3.9l-3.7 3.6 25.7 25.7-25.3 25.3 3.5 3.6L34 47.4z"/></symbol><symbol id="icon-close" viewBox="0 0 64 64" xmlns="http://www.w3.org/2000/svg"><style>.jst0{fill-rule:evenodd;clip-rule:evenodd}</style><path class="jst0" d="M32 30.1l17.9-17.9 1.9 1.9L33.9 32l17.9 17.9-1.9 1.9L32 33.9 14.1 51.8l-1.8-1.9L30.1 32 12.3 14.1l1.8-1.9z"/></symbol><symbol viewBox="0 0 64 64" id="icon-doc" xmlns="http://www.w3.org/2000/svg"><path d="M42.1 44H19.6v3.4h24v-1.7V44h-1.5zm0-8.6H19.6V38h24v-1.3-1.3h-1.5zm0-9.4H19.6v3.4h24v-1.7V26h-1.5zm.8-8.6H29v3.4h15.3v-1.7-1.7h-1.4zm-29.3-6h36v42h-36v-42zM14 56h39V11 8H11v48h3z"/></symbol><symbol viewBox="0 0 64 64" id="icon-download" xmlns="http://www.w3.org/2000/svg"><defs><path id="la" d="M23 31.6l7.4 7.6V5.5h2.2v33.7l7.4-7.6 1.5 1.7-10 10.3-10-10.3 1.5-1.7zm13.3-14.1h17.2v41h-43v-41h17.2v2.2H12.6v36.7h38.7V19.7h-15v-2.2z"/></defs><use xlink:href="#la" overflow="visible" fill-rule="evenodd" clip-rule="evenodd"/></symbol><symbol viewBox="0 0 64 64" id="icon-facebook" xmlns="http://www.w3.org/2000/svg"><path d="M52 9.6c.7 0 1.3.2 1.8.7.5.5.7 1.1.7 1.8V52c0 .7-.2 1.3-.7 1.8-.5.5-1.1.7-1.8.7H40.6V37h5.8l.8-6.8h-6.7v-4.3c0-1.1.2-1.9.7-2.5.5-.6 1.3-.8 2.7-.8h3.6v-6c-1.3-.1-2.9-.3-5.2-.3-2.7 0-4.8.8-6.4 2.3-1.6 1.5-2.4 3.8-2.4 6.6v5h-5.8V37h5.8v17.5H12c-.7 0-1.3-.2-1.8-.7-.5-.5-.7-1.1-.7-1.8V12c0-.7.2-1.3.7-1.8s1.1-.7 1.8-.7h40z"/></symbol><symbol viewBox="0 0 64 64" id="icon-filter" xmlns="http://www.w3.org/2000/svg"><defs><path id="na" d="M32 49v1h4v-4h-4v3zm-2-2v-3h8v3h14v2H38v3h-8v-3H12v-2h18zM19 31v3h4v-4h-4v1zm-2 0v-3h8v3h27v2H25v3h-8v-3h-5v-2h5zm24-16v3h4v-4h-4v1zm-2 0v-3h8v3h5v2h-5v3h-8v-3H12v-2h27z"/></defs><use xlink:href="#na" overflow="visible" fill-rule="evenodd" clip-rule="evenodd"/></symbol><symbol viewBox="0 0 64 64" fill-rule="evenodd" clip-rule="evenodd" stroke-linejoin="round" stroke-miterlimit="1.414" id="icon-info" xmlns="http://www.w3.org/2000/svg"><path d="M32 5.704C17.589 5.704 5.894 17.485 5.894 32c0 14.515 11.695 26.296 26.106 26.296 14.411 0 26.106-11.781 26.106-26.296C58.106 17.485 46.411 5.704 32 5.704zm2.506 39.444h-5.012V30.527h5.012v14.621zM32 25.647c-2.13 0-3.864-1.746-3.864-3.892S29.87 17.863 32 17.863s3.864 1.746 3.864 3.892S34.13 25.647 32 25.647z" fill-rule="nonzero"/></symbol><symbol viewBox="0 0 64 64" id="icon-instagram" xmlns="http://www.w3.org/2000/svg"><path d="M54.4 15.4v33.3c0 1.6-.6 2.9-1.7 4.1-1.1 1.1-2.5 1.7-4.1 1.7H15.4c-1.5 0-2.9-.6-4.1-1.7-1.1-1.1-1.7-2.5-1.7-4.1V15.4c0-1.5.6-2.9 1.7-4.1s2.5-1.7 4.1-1.7h33.3c1.5 0 2.9.6 4.1 1.7 1 1.1 1.6 2.5 1.6 4.1zm-5.1 6v-4.8c0-.6-.2-1-.6-1.4-.4-.4-.8-.6-1.4-.6h-5c-.6 0-1 .2-1.4.6-.4.4-.6.8-.6 1.4v4.8c0 .6.2 1 .6 1.4.4.4.8.6 1.4.6h5c.6 0 1-.2 1.4-.6.4-.3.6-.8.6-1.4zM41 31.9c0-2.4-.9-4.5-2.7-6.2-1.7-1.7-3.8-2.5-6.4-2.5-2.4 0-4.5.8-6.4 2.5-1.7 1.7-2.7 3.8-2.7 6.2s.9 4.5 2.7 6.2c1.7 1.7 3.8 2.5 6.4 2.5s4.6-.8 6.4-2.5c1.9-1.7 2.7-3.8 2.7-6.2zm8.3 15.5V28.6h-3.9c.4 1.3.6 2.5.6 3.8 0 2.4-.6 4.7-1.9 6.8s-2.9 3.7-5.1 4.9-4.5 1.8-7 1.8c-3.8 0-7.1-1.3-9.8-3.9s-4.1-5.8-4.1-9.5c0-1.3.2-2.6.6-3.8h-4.1v18.9c0 .5.1.9.5 1.3.3.3.8.5 1.3.5h31.1c.5 0 .9-.1 1.3-.5.3-.5.5-1 .5-1.5z"/></symbol><symbol viewBox="0 0 64 64" id="icon-mail" xmlns="http://www.w3.org/2000/svg"><path d="M3.5 12.7v38.7h57V12.7h-57zM32 35.9L6.9 14.5h50.3L32 35.9zm-6.9-3.5L5.3 48.5v-33l19.8 16.9zm1.4 1.2l4.9 4.2h.1s.1 0 .1.1H32.6s.1 0 .1-.1h.1l4.9-4.2 19.5 15.9H6.9l19.6-15.9zm12.4-1.2l19.8-16.9v33L38.9 32.4z"/></symbol><symbol viewBox="0 0 64 64" id="icon-pinterest" xmlns="http://www.w3.org/2000/svg"><path d="M46.1 9.4c2.3 0 4.3.8 6 2.5 1.6 1.7 2.5 3.7 2.5 6v28.2c0 2.3-.8 4.3-2.5 6-1.7 1.6-3.7 2.5-6 2.5H24.8c1.7-2.4 2.8-4.4 3.2-6.2.1-.6.7-2.7 1.6-6.1.4.8 1.1 1.4 2.2 2 1.1.6 2.1.8 3.3.8 3.5 0 6.4-1.4 8.7-4.3 2.3-2.9 3.4-6.6 3.4-11 0-1.6-.4-3.2-1.1-4.8-.7-1.6-1.6-2.9-2.8-4.1-1.2-1.2-2.7-2.1-4.5-2.8C37 17.4 35.1 17 33 17s-4 .3-5.7.8c-1.8.6-3.2 1.3-4.5 2.3-1.2.9-2.3 2-3.2 3.2-.8 1.2-1.6 2.5-2 3.7s-.6 2.6-.6 3.9c0 2 .4 3.7 1.1 5.3.8 1.6 1.9 2.6 3.5 3.2.3.1.5.1.7 0 .2-.1.4-.3.4-.6.2-.8.4-1.5.4-1.8.1-.4 0-.8-.4-1.3-1-1.2-1.5-2.7-1.5-4.4 0-3 1-5.4 3-7.6s4.7-3.1 8-3.1c2.9 0 5.2.8 6.8 2.4 1.6 1.6 2.5 3.7 2.5 6.2 0 3.3-.6 6.1-2 8.4-1.3 2.3-3 3.5-5.1 3.5-1.2 0-2.1-.4-2.8-1.3-.7-.8-.9-1.8-.7-3 .1-.6.4-1.6.8-2.8.4-1.1.6-2.1.8-3 .2-.8.4-1.6.4-2.2 0-1-.3-1.8-.8-2.4-.5-.6-1.3-1-2.2-1-1.2 0-2.2.6-3 1.7-.8 1.1-1.3 2.5-1.3 4.1 0 1.4.2 2.6.7 3.5l-2.9 12.1c-.5 2-.6 4.4-.2 7.5h-5.4c-2.3 0-4.3-.8-6-2.5-1.6-1.8-2.5-3.7-2.5-6.1V17.8c0-2.3.8-4.3 2.5-6 1.7-1.6 3.7-2.5 6-2.5h28.3z"/></symbol><symbol viewBox="0 0 64 64" id="icon-resize" xmlns="http://www.w3.org/2000/svg"><defs><path id="sa" d="M36.5 8c-5.375 0-9.969 1.906-13.781 5.719C18.906 17.53 17 22.125 17 27.5c0 4.563 1.437 8.625 4.313 12.188L8.655 52.438c-.437.437-.656.937-.656 1.5 0 .562.203 1.046.61 1.453.406.406.89.609 1.453.609.562 0 1.062-.219 1.5-.656l12.75-12.657C27.875 45.563 31.936 47 36.5 47c5.375 0 9.969-1.906 13.781-5.719C54.094 37.47 56 32.875 56 27.5s-1.906-9.969-5.719-13.781C46.47 9.906 41.875 8 36.5 8zm0 36c-4.563 0-8.453-1.61-11.672-4.828C21.61 35.953 20 32.062 20 27.5c0-4.563 1.61-8.453 4.828-11.672C28.047 12.61 31.938 11 36.5 11c4.563 0 8.453 1.61 11.672 4.828C51.39 19.047 53 22.938 53 27.5c0 4.563-1.61 8.453-4.828 11.672C44.953 42.39 41.062 44 36.5 44z"/></defs><use xlink:href="#sa" overflow="visible" fill-rule="evenodd" clip-rule="evenodd"/></symbol><symbol viewBox="0 0 64 64" fill-rule="evenodd" clip-rule="evenodd" stroke-linejoin="round" stroke-miterlimit="1.414" id="icon-resize-invert" xmlns="http://www.w3.org/2000/svg"><path d="M32 0c17.661 0 32 14.339 32 32S49.661 64 32 64 0 49.661 0 32 14.339 0 32 0zm1.792 30.208V10.582h-3.584v19.626H10.582v3.584h19.626v19.626h3.584V33.792h19.626v-3.584H33.792z"/></symbol><symbol viewBox="0 0 64 64" id="icon-send" xmlns="http://www.w3.org/2000/svg"><path d="M36.8 58.7l22-53.5-53.5 22 22.1 9.4 9.4 22.1zm0-6.2l-7-16.5 23.4-23.4-16.4 39.9zm14.6-41.6L28 34.3l-16.5-7 39.9-16.4z"/></symbol><symbol viewBox="0 0 64 64" id="icon-trash" xmlns="http://www.w3.org/2000/svg"><path d="M16.7 55h30.7V19.2H16.7V55zm33.2-43.4v5.1H14.1v-5.1H23L25.6 9h12.8l2.6 2.6h8.9zM23.1 25h2.6v24.3h-2.6V25zm7.6 0h2.6v24.3h-2.6V25zm7.7 0H41v24.3h-2.6V25z"/></symbol><symbol viewBox="0 0 64 64" id="icon-twitter" xmlns="http://www.w3.org/2000/svg"><path d="M54.6 17.9v28.3c0 2.3-.8 4.3-2.5 6-1.7 1.6-3.7 2.5-6 2.5H17.9c-2.3 0-4.3-.8-6-2.5-1.6-1.7-2.5-3.7-2.5-6V17.9c0-2.3.8-4.3 2.5-6 1.7-1.6 3.7-2.5 6-2.5h28.3c2.3 0 4.3.8 6 2.5 1.6 1.6 2.4 3.6 2.4 6zm-7.5 5.7c-1.1.5-2.3.8-3.5 1 1.3-.8 2.3-1.9 2.8-3.5-1.3.8-2.6 1.3-4 1.5-1.2-1.3-2.7-2-4.5-2-1.7 0-3.2.6-4.4 1.8s-1.8 2.7-1.8 4.4c0 .6.1 1.1.1 1.4-2.5-.1-4.9-.8-7.1-1.9-2.2-1.1-4.1-2.7-5.7-4.6-.6 1-.8 2.1-.8 3.1 0 2.3.9 4 2.7 5.2-.9 0-1.9-.3-3-.8v.1c0 1.5.5 2.8 1.5 4 1 1.1 2.2 1.8 3.6 2.1-.6.1-1.1.2-1.5.2-.3 0-.6-.1-1.1-.1.4 1.3 1.1 2.3 2.2 3 1.1.8 2.3 1.2 3.6 1.3-2.3 1.8-4.8 2.7-7.7 2.7-.5 0-1 0-1.5-.1 2.9 1.8 6.1 2.8 9.5 2.8 2.2 0 4.2-.4 6.2-1.1 1.9-.7 3.6-1.6 5-2.8 1.3-1.2 2.5-2.5 3.5-4 1-1.6 1.7-3.1 2.2-4.7.5-1.6.7-3.3.7-5v-.8c1.1-.9 2.2-1.9 3-3.2z"/></symbol></svg>