<?xml version="1.0" encoding="UTF-8"?><!DOCTYPE svg PUBLIC "-//W3C//DTD SVG 1.1//EN" "http://www.w3.org/Graphics/SVG/1.1/DTD/svg11.dtd"><svg xmlns="http://www.w3.org/2000/svg" xmlns:xlink="http://www.w3.org/1999/xlink"><defs><style>.cls-1{fill:#1d1d1b;}</style></defs><symbol id="account_circle-24px" viewBox="0 0 24 24"><path d="M0 0h24v24H0z" fill="none"/><path d="M12 2C6.48 2 2 6.48 2 12s4.48 10 10 10 10-4.48 10-10S17.52 2 12 2zm0 3c1.66 0 3 1.34 3 3s-1.34 3-3 3-3-1.34-3-3 1.34-3 3-3zm0 14.2c-2.5 0-4.71-1.28-6-3.22.03-1.99 4-3.08 6-3.08 1.99 0 5.97 1.09 6 3.08-1.29 1.94-3.5 3.22-6 3.22z"/></symbol><symbol id="add_location-24px" viewBox="0 0 24 24"><path d="M0 0h24v24H0V0z" fill="none"/><path d="M12 2C8.14 2 5 5.14 5 9c0 5.25 7 13 7 13s7-7.75 7-13c0-3.86-3.14-7-7-7zm4 8h-3v3h-2v-3H8V8h3V5h2v3h3v2z"/></symbol><symbol id="add_shopping_cart-black-18dp" viewBox="0 0 24 24"><path d="M0 0h24v24H0zm18.31 6l-2.76 5z" fill="none"/><path d="M11 9h2V6h3V4h-3V1h-2v3H8v2h3v3zm-4 9c-1.1 0-1.99.9-1.99 2S5.9 22 7 22s2-.9 2-2-.9-2-2-2zm10 0c-1.1 0-1.99.9-1.99 2s.89 2 1.99 2 2-.9 2-2-.9-2-2-2zm-9.83-3.25l.03-.12.9-1.63h7.45c.75 0 1.41-.41 1.75-1.03l3.86-7.01L19.42 4h-.01l-1.1 2-2.76 5H8.53l-.13-.27L6.16 6l-.95-2-.94-2H1v2h2l3.6 7.59-1.35 2.45c-.16.28-.25.61-.25.96 0 1.1.9 2 2 2h12v-2H7.42c-.13 0-.25-.11-.25-.25z"/></symbol><symbol id="add-black-18dp" viewBox="0 0 24 24"><path d="M0 0h24v24H0z" fill="none"/><path d="M19 13h-6v6h-2v-6H5v-2h6V5h2v6h6v2z"/></symbol><symbol id="art_track-24px" viewBox="0 0 24 24"><path d="M0 0h24v24H0z" fill="none"/><path d="M22 13h-8v-2h8v2zm0-6h-8v2h8V7zm-8 10h8v-2h-8v2zm-2-8v6c0 1.1-.9 2-2 2H4c-1.1 0-2-.9-2-2V9c0-1.1.9-2 2-2h6c1.1 0 2 .9 2 2zm-1.5 6l-2.25-3-1.75 2.26-1.25-1.51L3.5 15h7z"/></symbol><symbol id="attach_email-24px" viewBox="0 0 24 24"><g><rect fill="none" height="24" width="24"/></g><g><g><path d="M21,10V4c0-1.1-0.9-2-2-2H3C1.9,2,1.01,2.9,1.01,4L1,16c0,1.1,0.9,2,2,2h11v-5c0-1.66,1.34-3,3-3H21z M11,11L3,6V4l8,5 l8-5v2L11,11z"/><path d="M21,14v4c0,1.1-0.9,2-2,2s-2-0.9-2-2v-4.5c0-0.28,0.22-0.5,0.5-0.5s0.5,0.22,0.5,0.5V18h2v-4.5c0-1.38-1.12-2.5-2.5-2.5 S15,12.12,15,13.5V18c0,2.21,1.79,4,4,4s4-1.79,4-4v-4H21z"/></g></g></symbol><symbol id="chevron_left-24px" viewBox="0 0 24 24"><path d="M0 0h24v24H0z" fill="none"/><path d="M15.41 7.41L14 6l-6 6 6 6 1.41-1.41L10.83 12z"/></symbol><symbol id="chevron_right-24px" viewBox="0 0 24 24"><path d="M0 0h24v24H0z" fill="none"/><path d="M10 6L8.59 7.41 13.17 12l-4.58 4.59L10 18l6-6z"/></symbol><symbol id="content_copy-24px" viewBox="0 0 24 24"><path d="M0 0h24v24H0z" fill="none"/><path d="M16 1H4c-1.1 0-2 .9-2 2v14h2V3h12V1zm3 4H8c-1.1 0-2 .9-2 2v14c0 1.1.9 2 2 2h11c1.1 0 2-.9 2-2V7c0-1.1-.9-2-2-2zm0 16H8V7h11v14z"/></symbol><symbol id="delete_forever-black-18dp" viewBox="0 0 24 24"><path d="M0 0h24v24H0z" fill="none"/><path d="M0 0h24v24H0V0z" fill="none"/><path d="M6 19c0 1.1.9 2 2 2h8c1.1 0 2-.9 2-2V7H6v12zm2.46-7.12l1.41-1.41L12 12.59l2.12-2.12 1.41 1.41L13.41 14l2.12 2.12-1.41 1.41L12 15.41l-2.12 2.12-1.41-1.41L10.59 14l-2.13-2.12zM15.5 4l-1-1h-5l-1 1H5v2h14V4z"/></symbol><symbol id="edit_location-24px" viewBox="0 0 24 24"><path d="M0 0h24v24H0z" fill="none"/><path d="M12 2C8.14 2 5 5.14 5 9c0 5.25 7 13 7 13s7-7.75 7-13c0-3.86-3.14-7-7-7zm-1.56 10H9v-1.44l3.35-3.34 1.43 1.43L10.44 12zm4.45-4.45l-.7.7-1.44-1.44.7-.7c.15-.15.39-.15.54 0l.9.9c.15.15.15.39 0 .54z"/></symbol><symbol id="edit-24px" viewBox="0 0 24 24"><path d="M0 0h24v24H0z" fill="none"/><path d="M3 17.25V21h3.75L17.81 9.94l-3.75-3.75L3 17.25zM20.71 7.04c.39-.39.39-1.02 0-1.41l-2.34-2.34c-.39-.39-1.02-.39-1.41 0l-1.83 1.83 3.75 3.75 1.83-1.83z"/></symbol><symbol id="icon-whatsapp" viewBox="0 0 20 20">
  <g id="Artboard1" transform="matrix(1,0,0,1,-11.0001,-11.0815)">
      <rect x="11" y="11.081" width="19.775" height="19.775" style="fill:none;"/>
      <clipPath id="_clip1">
          <rect x="11" y="11.081" width="19.775" height="19.775"/>
      </clipPath>
      <g clip-path="url(#_clip1)">
          <g id="ic-whatsapp" transform="matrix(1,0,0,1,11.0001,11.0815)">
              <path id="chatbubble" d="M9.888,0.081C4.434,0.081 0,4.513 0,9.969C0,11.952 0.588,13.805 1.624,15.395L0.518,19.085C0.469,19.246 0.516,19.421 0.637,19.538C0.759,19.655 0.936,19.694 1.095,19.639L4.707,18.392C6.211,19.32 7.989,19.857 9.888,19.857C15.344,19.857 19.775,15.425 19.775,9.969C19.775,4.513 15.344,0.081 9.888,0.081ZM9.888,0.98C14.858,0.98 18.876,4.998 18.876,9.969C18.876,14.94 14.858,18.958 9.888,18.958C8.086,18.958 6.41,18.429 5.009,17.52C4.893,17.445 4.748,17.427 4.617,17.472L1.63,18.503L2.545,15.451C2.584,15.321 2.562,15.181 2.486,15.069C1.471,13.579 0.899,11.844 0.899,9.969C0.899,4.998 4.919,0.98 9.888,0.98Z"/>
              <path id="phone" d="M6.369,3.903C6.335,3.907 6.302,3.914 6.271,3.924C5.27,4.232 4.561,4.776 4.178,5.483C3.795,6.191 3.747,7.021 3.911,7.864C4.24,9.55 5.406,11.362 6.881,12.871C8.357,14.38 10.136,15.588 11.832,15.94C12.681,16.116 13.525,16.069 14.255,15.687C14.985,15.305 15.566,14.592 15.926,13.573C15.995,13.377 15.919,13.159 15.744,13.047L12.542,11.038L12.535,11.031C12.519,11.021 12.502,11.011 12.485,11.003C12.438,10.973 12.386,10.951 12.331,10.94C12.326,10.94 12.322,10.94 12.317,10.94C12.305,10.937 12.294,10.935 12.282,10.933C12.279,10.933 12.277,10.933 12.275,10.933C12.2,10.929 12.125,10.943 12.057,10.975C12.032,10.987 12.009,11.001 11.987,11.017C11.972,11.026 11.958,11.035 11.945,11.045C11.94,11.052 11.935,11.059 11.931,11.066C11.913,11.082 11.897,11.098 11.881,11.116L11.179,11.825C9.906,11.184 8.927,10.109 8.047,8.658L8.693,8.019C8.706,8.008 8.717,7.996 8.728,7.984C8.738,7.975 8.748,7.965 8.756,7.956C8.756,7.953 8.756,7.951 8.756,7.949C8.766,7.94 8.776,7.93 8.785,7.92C8.785,7.918 8.785,7.916 8.785,7.913C8.789,7.907 8.794,7.9 8.799,7.892C8.803,7.888 8.808,7.883 8.813,7.878C8.818,7.867 8.822,7.855 8.827,7.843C8.827,7.841 8.827,7.839 8.827,7.836C8.829,7.832 8.831,7.827 8.834,7.822C8.839,7.813 8.843,7.804 8.848,7.794C8.851,7.783 8.853,7.771 8.855,7.759C8.855,7.757 8.855,7.755 8.855,7.752C8.858,7.738 8.86,7.724 8.862,7.71C8.862,7.708 8.862,7.705 8.862,7.703C8.862,7.691 8.862,7.68 8.862,7.668C8.862,7.666 8.862,7.663 8.862,7.661C8.862,7.649 8.862,7.638 8.862,7.626C8.862,7.621 8.862,7.617 8.862,7.612C8.86,7.6 8.858,7.589 8.855,7.577C8.855,7.575 8.855,7.572 8.855,7.57C8.848,7.543 8.838,7.518 8.827,7.493C8.827,7.49 8.827,7.488 8.827,7.486C8.819,7.466 8.809,7.448 8.799,7.43L8.792,7.416C8.789,7.413 8.787,7.411 8.785,7.409L6.783,4.122C6.704,3.991 6.564,3.909 6.411,3.904C6.397,3.904 6.383,3.904 6.369,3.904L6.369,3.903Z" style="fill-rule:nonzero;"/>
          </g>
      </g>
  </g>
</symbol><symbol id="login-24px" viewBox="0 0 24 24"><g><rect fill="none" height="24" width="24"/></g><g><path d="M11,7L9.6,8.4l2.6,2.6H2v2h10.2l-2.6,2.6L11,17l5-5L11,7z M20,19h-8v2h8c1.1,0,2-0.9,2-2V5c0-1.1-0.9-2-2-2h-8v2h8V19z"/></g></symbol><symbol id="noun_close" viewBox="0 0 45 45">
    <g transform="matrix(1,0,0,1,-27.808,-27.808)">
        <path d="M49.469,48.469C49.762,48.762 50.241,48.759 50.531,48.469L70.969,28.031C71.262,27.738 71.732,27.732 72.023,28.023L71.977,27.977C72.266,28.266 72.259,28.741 71.969,29.031L51.531,49.469C51.238,49.762 51.241,50.241 51.531,50.531L71.969,70.969C72.262,71.262 72.268,71.732 71.977,72.023L72.023,71.977C71.734,72.266 71.259,72.259 70.969,71.969L50.531,51.531C50.238,51.238 49.759,51.241 49.469,51.531L29.031,71.969C28.738,72.262 28.268,72.268 27.977,71.977L28.023,72.023C27.734,71.734 27.741,71.259 28.031,70.969L48.469,50.531C48.762,50.238 48.759,49.759 48.469,49.469L28.031,29.031C27.738,28.738 27.732,28.268 28.023,27.977L27.977,28.023C28.266,27.734 28.741,27.741 29.031,28.031L49.469,48.469Z" style="fill-rule:nonzero;"/>
    </g>
</symbol><symbol id="picture_as_pdf-24px" viewBox="0 0 24 24"><path d="M0 0h24v24H0z" fill="none"/><path d="M20 2H8c-1.1 0-2 .9-2 2v12c0 1.1.9 2 2 2h12c1.1 0 2-.9 2-2V4c0-1.1-.9-2-2-2zm-8.5 7.5c0 .83-.67 1.5-1.5 1.5H9v2H7.5V7H10c.83 0 1.5.67 1.5 1.5v1zm5 2c0 .83-.67 1.5-1.5 1.5h-2.5V7H15c.83 0 1.5.67 1.5 1.5v3zm4-3H19v1h1.5V11H19v2h-1.5V7h3v1.5zM9 9.5h1v-1H9v1zM4 6H2v14c0 1.1.9 2 2 2h14v-2H4V6zm10 5.5h1v-3h-1v3z"/></symbol><symbol id="post_add-black-18dp" viewBox="0 0 24 24"><g><rect fill="none" height="24" width="24"/></g><g><g/><g><path d="M17,19.22H5V7h7V5H5C3.9,5,3,5.9,3,7v12c0,1.1,0.9,2,2,2h12c1.1,0,2-0.9,2-2v-7h-2V19.22z"/><path d="M19,2h-2v3h-3c0.01,0.01,0,2,0,2h3v2.99c0.01,0.01,2,0,2,0V7h3V5h-3V2z"/><rect height="2" width="8" x="7" y="9"/><polygon points="7,12 7,14 15,14 15,12 12,12"/><rect height="2" width="8" x="7" y="15"/></g></g></symbol><symbol id="receipt_long-24px" viewBox="0 0 24 24"><path d="M0,0h24v24H0V0z" fill="none"/><g><path d="M19.5,3.5L18,2l-1.5,1.5L15,2l-1.5,1.5L12,2l-1.5,1.5L9,2L7.5,3.5L6,2v14H3v3c0,1.66,1.34,3,3,3h12c1.66,0,3-1.34,3-3V2 L19.5,3.5z M19,19c0,0.55-0.45,1-1,1s-1-0.45-1-1v-3H8V5h11V19z"/><rect height="2" width="6" x="9" y="7"/><rect height="2" width="2" x="16" y="7"/><rect height="2" width="6" x="9" y="10"/><rect height="2" width="2" x="16" y="10"/></g></symbol><symbol id="sh-logo" viewBox="0 0 425.2 37.13"><title>190619_StudioHenk_Logo zwart</title><path class="cls-1" d="M20.88,22.32c-4.92-1.84-7.74-2.82-7.74-5.95,0-2.41,2.41-4.31,5.49-4.31,4.46,0,7.43,4.06,7.43,4.06l4.26-4.21A15.44,15.44,0,0,0,18.63,6.22c-7.23,0-11.75,5.07-11.75,10.15,0,6.67,6,9.54,11.23,11.39,4.26,1.48,6.57,2.56,6.57,5.59S21.5,37.5,18.42,37.5c-5.44,0-8.51-5.38-8.51-5.38L5.29,36a15.7,15.7,0,0,0,13.13,7.34c6.77,0,12.51-3.49,12.51-10S26.37,24.37,20.88,22.32Z" transform="translate(-5.29 -6.22)"/><polygon class="cls-1" points="37.09 6.46 46.99 6.46 46.99 36.51 53.14 36.51 53.14 6.46 63.04 6.46 63.04 0.61 37.09 0.61 37.09 6.46"/><path class="cls-1" d="M104.65,28.94c0,5.13-2.62,8.56-7.69,8.56s-7.7-3.43-7.7-8.56V6.83H83.11V29.71c0,7.89,5.38,13.64,13.85,13.64S110.8,37.6,110.8,29.71V6.83h-6.15Z" transform="translate(-5.29 -6.22)"/><path class="cls-1" d="M140.25,6.83H128.66v35.9h11.59c10.46,0,17.75-7.59,17.75-17.95S150.71,6.83,140.25,6.83Zm.11,30.06h-5.54V12.68h5.54c7,0,11.38,5.54,11.38,12.1S147.33,36.89,140.36,36.89Z" transform="translate(-5.29 -6.22)"/><rect class="cls-1" x="167.18" y="0.62" width="6.16" height="35.9"/><path class="cls-1" d="M211.25,6.22c-10.47,0-18.16,8-18.16,18.56s7.69,18.57,18.16,18.57,18.15-8,18.15-18.57S221.71,6.22,211.25,6.22Zm0,31.28c-7.23,0-11.9-5.79-11.9-12.72s4.67-12.72,11.9-12.72,11.89,5.8,11.89,12.72S218.48,37.5,211.25,37.5Z" transform="translate(-5.29 -6.22)"/><polygon class="cls-1" points="286.75 15.23 271.41 15.23 271.41 0.61 265.26 0.61 265.26 36.51 271.41 36.51 271.41 21.08 286.75 21.08 286.75 36.51 292.9 36.51 292.9 0.61 286.75 0.61 286.75 15.23"/><polygon class="cls-1" points="316.91 21.03 331.27 21.03 331.27 15.18 316.91 15.18 316.91 6.46 332.5 6.46 332.5 0.61 310.76 0.61 310.76 36.51 332.81 36.51 332.81 30.67 316.91 30.67 316.91 21.03"/><polygon class="cls-1" points="372.51 25.33 354.56 0.61 349.02 0.61 349.02 36.51 355.18 36.51 355.18 11.85 373.13 36.51 378.67 36.51 378.67 0.61 372.51 0.61 372.51 25.33"/><path class="cls-1" d="M429.74,37.65c-2.85.61-5.71-.9-8.55-6l-5.09-9.22L428.49,6.83h-7.7L408,22.94V6.83h-6.15v35.9H408V32.59l4.09-5.13,3.67,6.64c4.33,7.84,9.38,10.23,14.76,8.88Z" transform="translate(-5.29 -6.22)"/></symbol><symbol id="shopping_cart-24px" viewBox="0 0 24 24"><path d="M0 0h24v24H0z" fill="none"/><path d="M7 18c-1.1 0-1.99.9-1.99 2S5.9 22 7 22s2-.9 2-2-.9-2-2-2zM1 2v2h2l3.6 7.59-1.35 2.45c-.16.28-.25.61-.25.96 0 1.1.9 2 2 2h12v-2H7.42c-.14 0-.25-.11-.25-.25l.03-.12.9-1.63h7.45c.75 0 1.41-.41 1.75-1.03l3.58-6.49c.08-.14.12-.31.12-.48 0-.55-.45-1-1-1H5.21l-.94-2H1zm16 16c-1.1 0-1.99.9-1.99 2s.89 2 1.99 2 2-.9 2-2-.9-2-2-2z"/></symbol><symbol id="speed-24px" viewBox="0 0 24 24"><path d="M0 0h24v24H0z" fill="none"/><path d="M20.38 8.57l-1.23 1.85a8 8 0 0 1-.22 7.58H5.07A8 8 0 0 1 15.58 6.85l1.85-1.23A10 10 0 0 0 3.35 19a2 2 0 0 0 1.72 1h13.85a2 2 0 0 0 1.74-1 10 10 0 0 0-.27-10.44zm-9.79 6.84a2 2 0 0 0 2.83 0l5.66-8.49-8.49 5.66a2 2 0 0 0 0 2.83z"/></symbol></svg>