<?xml version="1.0" encoding="UTF-8"?>
<svg id="ARTWORK" xmlns="http://www.w3.org/2000/svg" viewBox="0 0 1475.64 368.5">
  <defs>
    <style>
      .cls-1 {
        fill: #1d1d1b;
      }
    </style>
  </defs>
  <path class="cls-1" d="m33.44,151.35c1.78-1.16,2.97-1.93,3.93-2.58.96-.66,1.69-1.2,2.55-1.89,11.1-8.91,12.73-20.99,4.27-31.53-3.74-4.67-7.91-7.23-12.74-7.83-5.2-.63-9.41.96-15.55,5.9L0,126.17l40.31,50.2,6.91-5.56-14.99-18.67,1.21-.79Zm-5.98-5.16l-15.76-19.62,8.07-6.48c3.49-2.8,5.87-3.97,8.19-3.97.25,0,.51.01.76.04,3.13.35,6.12,2.18,8.63,5.31,3.63,4.52,4.46,9.95,2.17,14.16-1.08,1.94-2.78,3.78-5.54,6-1.59,1.27-3,2.3-6.52,4.56Z"/>
  <path class="cls-1" d="m121.97,119.83l8.8-5.2-30.72-14.95c3.2-3.1,4.55-5.3,5.44-8.75,1.38-4.81.67-10.11-1.94-14.55-2.48-4.18-6.55-7.3-10.91-8.35-5.12-1.25-8.92-.36-15.66,3.62l-17.05,10.07,32.75,55.42,7.64-4.51-13.82-23.39,6.61-3.9,28.87,14.5Zm-39.36-17.16l-11.16-18.9,8.41-4.97c4.03-2.38,5.7-3.13,7.46-3.13.35,0,.7.03,1.08.08,2.78.38,5.09,2.19,7.06,5.52,1.99,3.38,2.63,6.48,1.89,9.21-.73,2.74-2.86,5.17-6.33,7.22l-8.41,4.97Z"/>
  <path class="cls-1" d="m194.97,53.22c-6.96-18.02-24.67-26.2-42.13-19.47-8.44,3.27-14.92,9.36-18.24,17.17-3.32,7.81-3.3,16.9.06,25.59,5.33,13.82,16.98,21.87,30,21.87,4,0,8.13-.76,12.25-2.35,8.44-3.26,14.91-9.36,18.2-17.16,3.29-7.8,3.24-16.91-.14-25.65Zm-51.32,19.82c-1.29-3.33-1.89-6.74-1.89-10.04,0-9.69,5.22-18.5,13.93-21.86,2.35-.91,4.8-1.36,7.29-1.36,3.44,0,6.95.86,10.28,2.57,5.77,2.95,10.28,8.05,12.71,14.34,2.45,6.34,2.54,13.17.26,19.24-2.27,6.05-6.59,10.56-12.18,12.72-11.69,4.52-25.33-2.49-30.41-15.61Z"/>
  <path class="cls-1" d="m271.54,65.06c-2.02,2.4-4.39,4.37-7.11,5.91-2.71,1.53-5.77,2.62-9.15,3.27-2.02.39-4.01.58-5.95.58-4.55,0-8.84-1.05-12.64-3.11-6.12-3.31-9.25-8.04-10.83-16.31l-7.9-41.43,8.71-1.66,7.46,39.07c1.45,7.65,2.39,9.59,5.91,12.21,3.69,2.83,8.41,3.8,13.64,2.8,5.23-.99,9.26-3.63,11.65-7.62,2.31-3.74,2.47-5.89,1.01-13.53l-7.46-39.07,8.72-1.67,7.9,41.43c1.61,8.43.5,13.8-3.96,19.13Z"/>
  <path class="cls-1" d="m353.29,8.56C347.29,2.87,338.96-.19,329.89,0l-21.62.42,1.25,64.35,21.52-.41c11.25-.22,17.87-2.98,23.61-9.85,5.39-6.39,8.38-14.86,8.22-23.24-.17-8.96-3.57-17.02-9.58-22.71Zm-35.06,48.43l-.95-49.11,11.5-.22c6.77-.15,13.01,2.19,17.57,6.55,4.55,4.36,7.13,10.44,7.26,17.14.13,6.71-2.79,14.54-7.26,19.47-3.87,4.12-8.52,5.78-16.62,5.94l-11.5.22Z"/>
  <polygon class="cls-1" points="427.7 63.03 426.8 70.6 426.3 70.54 389.86 66.22 397.43 2.3 406.24 3.34 399.56 59.7 427.7 63.03"/>
  <polygon class="cls-1" points="501.78 20.94 472.05 49.55 465.46 78.73 456.81 76.78 463.27 48.15 449.99 9.25 459.37 11.37 469.8 41.14 492.47 18.84 501.78 20.94"/>
  <path class="cls-1" d="m598.37,58.56c-1.97-3.94-4.86-6.24-10.66-8.5l-19.61-7.61-23.29,60.01,22.31,8.65c2.47.96,4.92,1.44,7.27,1.44s4.39-.43,6.39-1.29c4.12-1.78,7.27-5.23,9.11-9.97,3.06-7.86,1.12-14.96-5.29-19.69,6.63-.28,11.89-3.93,14.24-9.99,1.62-4.18,1.45-9.05-.47-13.04Zm-16.99,38.81c-1.15,2.98-3.52,5.54-5.88,6.37-2.64.88-4.88.55-10.01-1.44l-9.65-3.74,7.73-19.92,9.65,3.74c3.9,1.52,6.59,3.6,7.99,6.18,1.39,2.57,1.45,5.53.17,8.81Zm8.5-28.53c-1.12,2.89-3.15,5.16-5.55,6.22-2.62,1.15-4.65,1.03-8.68-.54l-9.11-3.53,7.07-18.22,9.65,3.74c4.34,1.69,6,2.89,6.84,4.96v.02c.91,2.04.83,4.65-.22,7.35Z"/>
  <path class="cls-1" d="m712.29,113.95l-7.1,3.98-.23-.46c-2.68-5.09-6.09-8.44-11.41-11.18-11.61-5.99-24.73-1.23-31.21,11.32-7.21,13.98-3.47,27.35,9.52,34.06,4.69,2.42,8.65,3.54,14.15,3.99l.52.05-.98,7.45-.47-.03c-4.12-.22-5.81-.4-9.09-1.2-3.09-.75-5.59-1.68-8.36-3.11-8.33-4.3-14.32-11.16-16.85-19.32-2.54-8.17-1.52-17.34,2.86-25.83,8.63-16.74,27.51-22.99,43.92-14.53,3.61,1.86,6.88,4.37,9.75,7.44,2.01,2.24,2.93,3.49,4.76,6.95l.22.43Z"/>
  <path class="cls-1" d="m778.42,155.61c-2-8.23-7.39-15.28-15.19-19.87-16.18-9.5-35.02-4.3-44.81,12.35-9.8,16.7-5.18,35.73,10.99,45.23,5.27,3.1,11,4.68,16.67,4.68,2.73,0,5.44-.36,8.09-1.1,8.15-2.28,15.25-7.98,20-16.06,4.72-8.04,6.23-17,4.24-25.22Zm-12.55,20.34c-7.13,12.13-21.68,16.86-32.45,10.54-5.2-3.06-8.77-8.23-10.04-14.57-1.28-6.36-.08-13.09,3.36-18.95,3.42-5.82,8.7-10.11,14.87-12.09,2.38-.76,4.77-1.13,7.12-1.13,1.85,0,3.68.24,5.43.7,1.76.48,3.46,1.18,5.05,2.12,5.16,3.03,8.7,8.18,9.97,14.51,1.27,6.35.09,13.05-3.32,18.87Z"/>
  <path class="cls-1" d="m843.1,191.52c-1.26-5.1-3.8-8.07-10.46-12.2l-16.81-10.45-33.99,54.68,7.54,4.68,14.34-23.08,6.52,4.05.5,32.31,8.69,5.4-.96-34.15c4.23,1.4,6.8,1.58,10.27.77,4.9-1,9.28-4.08,11.99-8.46,2.57-4.13,3.45-9.19,2.36-13.54Zm-27.04,12.31l-8.3-5.16,11.58-18.64,8.3,5.16c2.39,1.48,3.86,2.48,4.84,3.38.97.9,1.44,1.7,1.82,2.77.95,2.64.41,5.53-1.63,8.82-2.07,3.33-4.52,5.33-7.29,5.94-2.77.62-5.91-.15-9.32-2.27Z"/>
  <path class="cls-1" d="m903.19,228.76c-1.18-5.1-4.12-8.51-10.86-12.6l-17.42-10.56-33.12,54.62-.26.43,7.59,4.6,12.41-20.48,1.18.89c3.38,2.54,4.52,3.4,6.4,4.54,5.96,3.61,11.99,4.89,17.45,3.71,5.47-1.19,10.19-4.81,13.63-10.49,3.1-5.11,4.08-9.9,2.99-14.65Zm-15.8-6.67c2.12,1.29,3.66,2.42,4.74,3.55s1.71,2.26,2.02,3.51c.75,3.06.04,6.49-2.04,9.92-3,4.97-7.82,7.61-12.56,6.89-2.19-.35-4.51-1.32-7.53-3.15-1.75-1.06-3.2-2.04-6.52-4.57l13.04-21.52,8.85,5.37Z"/>
  <path class="cls-1" d="m1004.29,281.54l-6.94,4.24-.26-.44c-2.87-5-6.4-8.21-11.82-10.75-11.83-5.55-24.76-.29-30.76,12.49-6.68,14.24-2.44,27.46,10.8,33.68,4.77,2.24,8.78,3.21,14.29,3.45l.52.03-.7,7.48h-.46c-4.13-.07-5.83-.19-9.13-.86-3.12-.64-5.66-1.47-8.48-2.79-8.49-3.99-14.73-10.62-17.57-18.68-2.84-8.06-2.17-17.27,1.89-25.92,3.86-8.23,10.39-14.41,18.4-17.4,8.01-2.99,16.86-2.55,24.93,1.23,3.67,1.72,7.04,4.1,10.02,7.06,2.1,2.16,3.06,3.38,5.02,6.77l.24.42Z"/>
  <polygon class="cls-1" points="1034.06 294.29 1028.22 313.54 1050.19 320.21 1047.97 327.51 1026.01 320.85 1019.81 341.3 1047.19 349.6 1044.97 356.9 1009.11 346.02 1027.78 284.42 1062.84 295.04 1060.62 302.34 1034.06 294.29"/>
  <path class="cls-1" d="m1125.77,321.57c.5-4.84-.93-9.77-3.81-13.2-3.37-4.04-6.96-5.59-14.75-6.39l-19.69-2.03-6.59,64.03,8.83.91,2.78-27.03,7.63.79,14.48,28.57.12.24,10.17,1.05-15.82-30.28c4.42-.59,6.81-1.56,9.57-3.81,3.97-3.05,6.55-7.73,7.08-12.85Zm-20.49-12.13c5.6.58,7.06,1.02,8.68,2.62h.01c2,1.96,2.79,4.78,2.39,8.64-.81,7.84-5.29,11.39-13.32,10.57l-9.72-1,2.24-21.83,9.72,1Z"/>
  <polygon class="cls-1" points="1173.03 310.03 1175.97 366.7 1167.11 367.16 1164.17 310.49 1143.07 311.59 1142.67 303.98 1143.17 303.95 1193.72 301.33 1194.12 308.94 1173.03 310.03"/>
  <polygon class="cls-1" points="1234.36 360.41 1225.58 361.73 1225.51 361.24 1215.95 298.08 1224.73 296.76 1224.8 297.25 1234.36 360.41"/>
  <polygon class="cls-1" points="1273.79 323.52 1281.02 350.91 1272.43 353.17 1272.3 352.68 1256.02 290.92 1291.44 281.58 1293.39 288.96 1266.55 296.03 1271.82 316.04 1294.02 310.19 1295.99 317.66 1273.79 323.52"/>
  <polygon class="cls-1" points="1346.88 329.52 1338.63 332.76 1338.44 332.3 1315.09 272.85 1323.35 269.6 1323.53 270.07 1346.88 329.52"/>
  <polygon class="cls-1" points="1415.87 295.61 1415.43 295.85 1382.92 313.51 1382.69 313.07 1352.18 256.95 1352.62 256.71 1384.36 239.46 1388 246.16 1363.62 259.41 1373.23 277.1 1393.4 266.14 1397.04 272.84 1376.87 283.8 1387.08 302.57 1412.22 288.91 1415.87 295.61"/>
  <path class="cls-1" d="m1468.16,217.31c-11.41-14.54-30.41-16.69-45.16-5.11l-17.01,13.35,39.74,50.64,16.94-13.29c8.85-6.95,12.47-13.14,12.92-22.08.46-8.34-2.25-16.91-7.43-23.5Zm-11.11,40.3l-9.04,7.1-30.33-38.64,9.04-7.1c5.33-4.18,11.72-6.08,17.98-5.34,6.25.74,11.97,4.04,16.11,9.31,4.14,5.28,6.53,13.29,5.93,19.92-.61,5.61-3.33,9.75-9.7,14.74Z"/>
</svg>