<?xml version="1.0" encoding="UTF-8" standalone="no"?>
<!DOCTYPE svg PUBLIC "-//W3C//DTD SVG 1.1//EN" "http://www.w3.org/Graphics/SVG/1.1/DTD/svg11.dtd">
<svg width="100%" height="100%" viewBox="0 0 40 40" version="1.1" xmlns="http://www.w3.org/2000/svg" xmlns:xlink="http://www.w3.org/1999/xlink" xml:space="preserve" xmlns:serif="http://www.serif.com/" style="fill-rule:evenodd;clip-rule:evenodd;stroke-linejoin:round;stroke-miterlimit:2;">
    <rect id="quoute" x="0" y="0" width="40" height="40" style="fill:none;"/>
    <g id="quoute1" serif:id="quoute">
        <g transform="matrix(5.9359,0,0,5.9359,5.40951,10.0701)">
            <path d="M4.453,3.463C4.18,3.412 3.938,3.326 3.727,3.205C3.516,3.084 3.338,2.936 3.193,2.76C3.049,2.584 2.938,2.384 2.862,2.159C2.786,1.935 2.748,1.693 2.748,1.436C2.748,0.979 2.857,0.611 3.076,0.334C3.318,0.033 3.605,-0.117 3.938,-0.117C4.066,-0.117 4.186,-0.094 4.295,-0.047C4.404,0 4.497,0.063 4.573,0.141C4.649,0.219 4.709,0.309 4.752,0.41C4.795,0.512 4.816,0.617 4.816,0.727C4.816,0.836 4.796,0.941 4.755,1.043C4.714,1.145 4.654,1.235 4.576,1.315C4.498,1.396 4.404,1.459 4.295,1.506C4.186,1.553 4.064,1.576 3.932,1.576C3.885,1.576 3.835,1.573 3.782,1.567C3.729,1.562 3.676,1.549 3.621,1.529C3.609,1.529 3.602,1.527 3.598,1.523C3.613,1.539 3.621,1.574 3.621,1.629C3.621,2.188 4,2.541 4.758,2.689L4.758,3.211L4.453,3.463ZM1.793,3.463C1.266,3.357 0.85,3.123 0.545,2.76C0.248,2.389 0.1,1.947 0.1,1.436C0.1,0.979 0.209,0.611 0.428,0.334C0.67,0.033 0.957,-0.117 1.289,-0.117C1.426,-0.117 1.547,-0.095 1.652,-0.05C1.758,-0.005 1.852,0.063 1.934,0.152C2.09,0.328 2.168,0.52 2.168,0.727C2.168,0.836 2.146,0.941 2.104,1.043C2.061,1.145 2,1.235 1.922,1.315C1.844,1.396 1.751,1.459 1.644,1.506C1.536,1.553 1.416,1.576 1.283,1.576C1.236,1.576 1.187,1.573 1.134,1.567C1.081,1.562 1.027,1.549 0.973,1.529C0.965,1.529 0.959,1.528 0.955,1.526C0.951,1.524 0.947,1.523 0.943,1.523C0.959,1.539 0.967,1.574 0.967,1.629C0.967,2.188 1.346,2.541 2.104,2.689L2.104,3.211L1.793,3.463Z" style="fill-rule:nonzero;"/>
        </g>
    </g>
</svg>
