<?xml version="1.0" encoding="UTF-8" standalone="no"?>
<!DOCTYPE svg PUBLIC "-//W3C//DTD SVG 1.1//EN" "http://www.w3.org/Graphics/SVG/1.1/DTD/svg11.dtd">
<svg width="100%" height="100%" viewBox="0 0 40 40" version="1.1" xmlns="http://www.w3.org/2000/svg" xmlns:xlink="http://www.w3.org/1999/xlink" xml:space="preserve" xmlns:serif="http://www.serif.com/" style="fill-rule:evenodd;clip-rule:evenodd;stroke-linecap:round;stroke-linejoin:round;">
    <rect id="img" x="0" y="0" width="40" height="40" style="fill:none;"/>
    <g id="img1" serif:id="img">
        <g transform="matrix(0.0665609,0,0,0.0665609,2.93959,2.98404)">
            <path d="M71.5,460L30.5,0L481.5,0L440.5,460L255.5,512L71.5,460Z" style="fill-rule:nonzero;"/>
        </g>
        <g transform="matrix(0.9,0,0,0.9,9.2,9.2)">
            <g id="img2" serif:id="img">
                <g>
                    <path d="M22,3.408C22,2.631 21.369,2 20.592,2L3.408,2C2.631,2 2,2.631 2,3.408L2,20.592C2,21.369 2.631,22 3.408,22L20.592,22C21.369,22 22,21.369 22,20.592L22,3.408Z" style="fill:none;stroke:white;stroke-width:0.65px;"/>
                    <path d="M7,2L7,22" style="fill:none;fill-rule:nonzero;stroke:white;stroke-width:0.65px;"/>
                    <path d="M17,2L17,22" style="fill:none;fill-rule:nonzero;stroke:white;stroke-width:0.65px;"/>
                    <path d="M2,12L22,12" style="fill:none;fill-rule:nonzero;stroke:white;stroke-width:0.65px;"/>
                    <path d="M2,7L7,7" style="fill:none;fill-rule:nonzero;stroke:white;stroke-width:0.65px;"/>
                    <path d="M2,17L7,17" style="fill:none;fill-rule:nonzero;stroke:white;stroke-width:0.65px;"/>
                    <path d="M17,17L22,17" style="fill:none;fill-rule:nonzero;stroke:white;stroke-width:0.65px;"/>
                    <path d="M17,7L22,7" style="fill:none;fill-rule:nonzero;stroke:white;stroke-width:0.65px;"/>
                </g>
            </g>
        </g>
    </g>
</svg>
