<?xml version="1.0" encoding="UTF-8" standalone="no"?>
<!DOCTYPE svg PUBLIC "-//W3C//DTD SVG 1.1//EN" "http://www.w3.org/Graphics/SVG/1.1/DTD/svg11.dtd">
<svg width="100%" height="100%" viewBox="0 0 40 40" version="1.1" xmlns="http://www.w3.org/2000/svg" xmlns:xlink="http://www.w3.org/1999/xlink" xml:space="preserve" xmlns:serif="http://www.serif.com/" style="fill-rule:evenodd;clip-rule:evenodd;stroke-linecap:round;stroke-linejoin:round;">
    <rect id="img" x="0" y="0" width="40" height="40" style="fill:none;"/>
    <g id="img1" serif:id="img">
        <g transform="matrix(0.0665609,0,0,0.0665609,2.93959,2.98404)">
            <path d="M71.5,460L30.5,0L481.5,0L440.5,460L255.5,512L71.5,460Z" style="fill-rule:nonzero;"/>
        </g>
        <g id="image" transform="matrix(1,0,0,1,8,8)">
            <path d="M21,5C21,3.896 20.104,3 19,3L5,3C3.896,3 3,3.896 3,5L3,19C3,20.104 3.896,21 5,21L19,21C20.104,21 21,20.104 21,19L21,5Z" style="fill:none;stroke:white;stroke-width:1px;"/>
            <circle cx="8.5" cy="8.5" r="1.5" style="fill:none;stroke:white;stroke-width:1px;"/>
            <path d="M21,15L16,10L5,21" style="fill:none;fill-rule:nonzero;stroke:white;stroke-width:1px;"/>
        </g>
    </g>
</svg>
