<?xml version="1.0" encoding="UTF-8" standalone="no"?>
<!DOCTYPE svg PUBLIC "-//W3C//DTD SVG 1.1//EN" "http://www.w3.org/Graphics/SVG/1.1/DTD/svg11.dtd">
<svg width="100%" height="100%" viewBox="0 0 40 40" version="1.1" xmlns="http://www.w3.org/2000/svg" xmlns:xlink="http://www.w3.org/1999/xlink" xml:space="preserve" xmlns:serif="http://www.serif.com/" style="fill-rule:evenodd;clip-rule:evenodd;stroke-linecap:round;stroke-linejoin:round;">
    <rect id="img" x="0" y="0" width="40" height="40" style="fill:none;"/>
    <g id="img1" serif:id="img">
        <g transform="matrix(0.732317,0,0,0.732317,1.09411,4.96643)">
            <g id="img2" serif:id="img" transform="matrix(0.785377,0,0,0.785377,32.0845,8.64387)">
                <path d="M21,5C21,3.896 20.104,3 19,3L5,3C3.896,3 3,3.896 3,5L3,19C3,20.104 3.896,21 5,21L19,21C20.104,21 21,20.104 21,19L21,5Z" style="fill:none;stroke:black;stroke-width:1px;"/>
                <circle cx="8.5" cy="8.5" r="1.5" style="fill:none;stroke:black;stroke-width:1px;"/>
                <path d="M21,15L16,10L5,21" style="fill:none;fill-rule:nonzero;stroke:black;stroke-width:1px;"/>
            </g>
            <g id="img3" serif:id="img" transform="matrix(0.785377,0,0,0.785377,0.643445,8.64387)">
                <path d="M21,5C21,3.896 20.104,3 19,3L5,3C3.896,3 3,3.896 3,5L3,19C3,20.104 3.896,21 5,21L19,21C20.104,21 21,20.104 21,19L21,5Z" style="fill:none;stroke:black;stroke-width:1px;"/>
                <circle cx="8.5" cy="8.5" r="1.5" style="fill:none;stroke:black;stroke-width:1px;"/>
                <path d="M21,15L16,10L5,21" style="fill:none;fill-rule:nonzero;stroke:black;stroke-width:1px;"/>
            </g>
            <g id="img4" serif:id="img" transform="matrix(0.785377,0,0,0.785377,16.364,8.64387)">
                <path d="M21,5C21,3.896 20.104,3 19,3L5,3C3.896,3 3,3.896 3,5L3,19C3,20.104 3.896,21 5,21L19,21C20.104,21 21,20.104 21,19L21,5Z" style="fill:none;stroke:black;stroke-width:1px;"/>
                <circle cx="8.5" cy="8.5" r="1.5" style="fill:none;stroke:black;stroke-width:1px;"/>
                <path d="M21,15L16,10L5,21" style="fill:none;fill-rule:nonzero;stroke:black;stroke-width:1px;"/>
            </g>
        </g>
    </g>
</svg>
