<?xml version="1.0" encoding="UTF-8" standalone="no"?>
<!DOCTYPE svg PUBLIC "-//W3C//DTD SVG 1.1//EN" "http://www.w3.org/Graphics/SVG/1.1/DTD/svg11.dtd">
<svg width="100%" height="100%" viewBox="0 0 40 40" version="1.1" xmlns="http://www.w3.org/2000/svg" xmlns:xlink="http://www.w3.org/1999/xlink" xml:space="preserve" xmlns:serif="http://www.serif.com/" style="fill-rule:evenodd;clip-rule:evenodd;stroke-linecap:round;stroke-linejoin:round;">
    <rect id="img" x="0" y="0" width="40" height="40" style="fill:none;"/>
    <g id="img1" serif:id="img">
        <g transform="matrix(1,0,0,1,2.42288,0)">
            <g id="txt" transform="matrix(0.5,0,0,0.5,-0.422879,14)">
                <path d="M18,10L6,10" style="fill:none;fill-rule:nonzero;stroke:black;stroke-width:1px;"/>
                <path d="M21,6L3,6" style="fill:none;fill-rule:nonzero;stroke:black;stroke-width:1px;"/>
                <path d="M21,14L3,14" style="fill:none;fill-rule:nonzero;stroke:black;stroke-width:1px;"/>
                <path d="M18,18L6,18" style="fill:none;fill-rule:nonzero;stroke:black;stroke-width:1px;"/>
            </g>
            <g id="txt1" serif:id="txt" transform="matrix(0.5,0,0,0.5,11.5771,14)">
                <path d="M18,10L6,10" style="fill:none;fill-rule:nonzero;stroke:black;stroke-width:1px;"/>
                <path d="M21,6L3,6" style="fill:none;fill-rule:nonzero;stroke:black;stroke-width:1px;"/>
                <path d="M21,14L3,14" style="fill:none;fill-rule:nonzero;stroke:black;stroke-width:1px;"/>
                <path d="M18,18L6,18" style="fill:none;fill-rule:nonzero;stroke:black;stroke-width:1px;"/>
            </g>
            <g id="txt2" serif:id="txt" transform="matrix(0.5,0,0,0.5,23.5771,14)">
                <path d="M18,10L6,10" style="fill:none;fill-rule:nonzero;stroke:black;stroke-width:1px;"/>
                <path d="M21,6L3,6" style="fill:none;fill-rule:nonzero;stroke:black;stroke-width:1px;"/>
                <path d="M21,14L3,14" style="fill:none;fill-rule:nonzero;stroke:black;stroke-width:1px;"/>
                <path d="M18,18L6,18" style="fill:none;fill-rule:nonzero;stroke:black;stroke-width:1px;"/>
            </g>
        </g>
    </g>
</svg>
