<svg xmlns="http://www.w3.org/2000/svg" viewBox="0 0 64 64" id="icon-cart-full" width="22">
    <path d="M17.2 49.8c0 .8.3 1.5.9 2.1s1.3.9 2.1.9 1.5-.3 2.1-.9c.6-.6.9-1.3.9-2.1s-.3-1.5-.9-2.1-1.3-.9-2.1-.9-1.5.3-2.1.9c-.6.7-.9 1.3-.9 2.1zm26.7 0c0 .8.3 1.5.9 2.1.6.6 1.3.9 2.1.9s1.5-.3 2.1-.9c.6-.6.9-1.3.9-2.1s-.3-1.5-.9-2.1c-.6-.6-1.3-.9-2.1-.9s-1.5.3-2.1.9c-.5.7-.9 1.3-.9 2.1zM16.6 17.5l-1.1-4.9c-.2-.8-.6-1.2-1.4-1.2H8.2v2.8h4.5l1.8 7.9 2.9 13.2-1.6 6.9c-.1.4.1.9.3 1.2.3.4.6.6 1.2.6h35.2v-2.8H19.1l.6-2.9h30.5l5.4-17c.4-1.3 1.3-3.9 1.3-3.9H53" fill="currentcolor">
    </path>
</svg>