<svg
        class="sh-atom-icon__svg"
        width="20"
        height="20"
        viewBox="0 0 20 20"
        aria-labelledby="iconPhone"
        id="iconPhone"
        fill="none"
        xmlns="http://www.w3.org/2000/svg"
>
    <title>iconPhone</title>
    <desc>icon of a phone</desc>
    <path
            fill-rule="evenodd"
            clip-rule="evenodd"
            d="M4.23887 2L7.7656 7.05663L4.92805 9.89418C5.57414 10.8959 6.3477 11.8478 7.24995 12.7501C8.1522 13.6523 9.10409 14.4259 10.1058 15.072L12.9434 12.2344L18 15.7611L16.6193 17.1418C15.858 17.9031 14.7406 18.1855 13.7091 17.8773C11.0295 17.0769 8.62885 15.6102 6.50932 13.4907C4.38979 11.3712 2.92316 8.97048 2.12266 6.2909C1.8145 5.25939 2.09691 4.14196 2.85815 3.38072L4.23887 2ZM11.0332 15.6259C11.9828 16.1491 12.9747 16.5648 14.0089 16.8738C14.6716 17.0717 15.3896 16.8903 15.8786 16.4012L16.375 15.9048L13.0637 13.5953L11.0332 15.6259ZM4.37414 8.96682L6.40467 6.93629L4.09519 3.62495L3.59879 4.12135C3.1097 4.61044 2.92826 5.32836 3.12625 5.99109C3.43523 7.02535 3.85088 8.01721 4.37414 8.96682Z"
            fill="currentcolor"
    ></path>
</svg>