<svg
    width="18"
    height="10"
    viewBox="0 0 18 10"
    fill="none"
    aria-labelledby="iconTruck"
    id="iconTruck"
    xmlns="http://www.w3.org/2000/svg"
>
    <title>iconTruck</title>
    <desc>An icon of a delivery truck signifying fast delivery</desc>
    <path
        d="M3.73844 0.15979C3.5772 0.160443 3.44663 0.290516 3.44598 0.451277C3.44663 0.611907 3.5772 0.741978 3.73844 0.74263H11.8343V7.40696H8.14075C8.03837 6.70997 7.43862 6.16764 6.71656 6.16764C5.99463 6.16764 5.3949 6.70987 5.29251 7.40683L4.03312 7.40696V6.13915C4.03339 6.06119 4.00245 5.98623 3.94713 5.93111C3.89181 5.876 3.81656 5.84518 3.7383 5.84544C3.66043 5.84571 3.58584 5.87692 3.53104 5.9319C3.47612 5.98701 3.44544 6.06157 3.44583 6.13915V7.70065C3.44649 7.86129 3.57706 7.99136 3.7383 7.99201H5.32632C5.49071 8.60983 6.05151 9.0719 6.71655 9.0719C7.3816 9.0719 7.94237 8.61 8.10678 7.99201H13.4635C13.6279 8.60983 14.1887 9.0719 14.8538 9.0719C15.5188 9.0719 16.0784 8.61 16.2423 7.99201H17.5786C17.7398 7.99136 17.8704 7.86128 17.8711 7.70065V4.98377C17.8711 4.94629 17.8639 4.90894 17.8498 4.87407L16.7504 2.15956V2.15969C16.7059 2.04947 16.5989 1.977 16.4797 1.97621H12.422V0.451411C12.4213 0.290519 12.2904 0.160318 12.1289 0.159924L3.73844 0.15979ZM2.45953 2.01042C2.38166 2.01068 2.30707 2.04189 2.25214 2.09687C2.19735 2.15198 2.16667 2.22655 2.16706 2.30412C2.16759 2.46475 2.29828 2.59482 2.45952 2.59547H6.89003C6.9679 2.59573 7.04262 2.56531 7.09794 2.51059C7.15326 2.456 7.18446 2.38169 7.18472 2.30412C7.18511 2.22615 7.15417 2.15119 7.09872 2.09608C7.0434 2.04097 6.96829 2.01015 6.89002 2.01041L2.45953 2.01042ZM12.4223 2.56128H16.2803L17.1428 4.69243L12.4221 4.6923L12.4223 2.56128ZM1.13528 3.87582C1.05728 3.87556 0.982424 3.90612 0.927104 3.96097C0.871785 4.01569 0.840585 4.09013 0.840454 4.16783C0.840847 4.2454 0.872047 4.31971 0.927235 4.3743C0.982554 4.42902 1.05741 4.45958 1.13528 4.45919H6.89003C6.9679 4.45958 7.04262 4.42902 7.09794 4.3743C7.15326 4.31971 7.18446 4.2454 7.18472 4.16783C7.18459 4.09013 7.15352 4.01569 7.0982 3.96097C7.04288 3.90612 6.96803 3.87556 6.89003 3.87582H1.13528ZM12.4223 5.27736H17.284V7.40681H16.2758C16.1738 6.70982 15.576 6.16762 14.854 6.16762C14.1321 6.16762 13.5329 6.70985 13.4305 7.40681H12.4223L12.4223 5.27736ZM6.69505 6.75254C6.70239 6.75241 6.70947 6.75254 6.71681 6.75254C7.18795 6.75254 7.56851 7.1336 7.56851 7.61813C7.56851 8.10263 7.18795 8.48659 6.71681 8.48659C6.24567 8.48659 5.86511 8.10266 5.86511 7.61813C5.86511 7.14119 6.23413 6.76418 6.69503 6.75254H6.69505ZM14.8322 6.75254C14.8395 6.75241 14.8466 6.75254 14.8539 6.75254C15.3251 6.75254 15.7062 7.1336 15.7062 7.61813C15.7062 8.10263 15.3251 8.48659 14.8539 8.48659C14.3828 8.48659 14.0022 8.10266 14.0022 7.61813C14.0022 7.14119 14.3713 6.76418 14.8322 6.75254H14.8322Z"
        fill="currentColor"
    >
    </path>
</svg>