<svg 
    width="500" 
    height="500"
    viewBox="0 0 500 500" 
    fill="none" 
    xmlns="http://www.w3.org/2000/svg"
>
<style>
    .svg-fg {
        fill: #000;
    }

    @media (prefers-color-scheme: dark) {
        .svg-fg { fill: #fff }
     }
</style>
<rect 
    width="500" 
    height="500" 
    fill="none"
/>
<path class="svg-fg" d="M83.2579 239.675H39.5308V198H22V300.334H39.5308V256.35H83.2579V300.334H100.789V198H83.2579V239.675Z" fill="none"/>
<path class="svg-fg" d="M169.23 256.208H210.164V239.532H169.23V214.676H213.67V198H151.699V300.334H214.553V283.687H169.23V256.208Z" fill="none"/>
<path class="svg-fg" d="M327.719 268.465L276.552 198H260.76V300.334H278.32V230.04L329.487 300.334H345.279V198H327.719V268.465Z" fill="none"/>
<path class="svg-fg" d="M475.777 285.853C467.653 287.592 459.5 283.288 451.405 268.75L436.895 242.468L472.213 198H450.264L413.806 243.922V198H396.275V300.334H413.806V271.43L425.465 256.806L435.926 275.734C448.269 298.082 462.664 304.895 478 301.047L475.777 285.853Z" fill="none"/>
</svg>
