<svg width="32" height="32" viewBox="0 0 32 32" fill="none" xmlns="http://www.w3.org/2000/svg">
<rect width="32" height="32" fill="white"/>
<path d="M5.76145 15.559H3.07645V13H2V19.2837H3.07645V16.5829H5.76145V19.2837H6.8379V13H5.76145V15.559Z" fill="#1D1D1B"/>
<path d="M11.0404 16.5742H13.5539V15.5502H11.0404V14.0239H13.7692V13H9.96399V19.2837H13.8235V18.2615H11.0404V16.5742Z" fill="#1D1D1B"/>
<path d="M20.7723 17.3268L17.6305 13H16.6608V19.2837H17.739V14.9674L20.8808 19.2837H21.8505V13H20.7723V17.3268Z" fill="#1D1D1B"/>
<path d="M29.8635 18.3945C29.3646 18.5013 28.864 18.237 28.3669 17.3443L27.476 15.7305L29.6447 13H28.2969L26.0583 15.8198V13H24.9818V19.2837H26.0583V17.5088L26.7741 16.6109L27.4165 17.7731C28.1744 19.1454 29.0583 19.5637 30 19.3274L29.8635 18.3945Z" fill="#1D1D1B"/>
</svg>
