<?xml version="1.0" encoding="UTF-8" standalone="no"?><!DOCTYPE svg PUBLIC "-//W3C//DTD SVG 1.1//EN" "http://www.w3.org/Graphics/SVG/1.1/DTD/svg11.dtd"><svg width="100%" height="100%" viewBox="0 0 64 64" version="1.1" xmlns="http://www.w3.org/2000/svg" xmlns:xlink="http://www.w3.org/1999/xlink" xml:space="preserve" xmlns:serif="http://www.serif.com/" style="fill-rule:evenodd;clip-rule:evenodd;stroke-linejoin:round;stroke-miterlimit:1.41421;"><path d="M42.239,13.503l9.579,0c0.021,0 -0.002,-2.642 0,-2.642l-13.212,0c-0.083,0 -1.329,0.01 -1.336,0.021c-0.006,0.01 0.014,1.35 0.015,1.3l0,13.212c0.003,0.017 2.627,-0.024 2.642,0l0,-10.116c1.569,0.744 3,1.686 4.294,2.829c1.294,1.142 2.409,2.436 3.344,3.881c0.936,1.445 1.659,3.014 2.168,4.707c0.509,1.692 0.764,3.461 0.764,5.305c0,2.56 -0.482,4.961 -1.445,7.205c-0.964,2.243 -2.285,4.204 -3.964,5.883c-1.679,1.679 -3.64,3 -5.883,3.964c-2.244,0.963 -4.645,1.445 -7.205,1.445c-2.56,0 -4.961,-0.482 -7.205,-1.445c-2.243,-0.964 -4.204,-2.285 -5.883,-3.964c-1.679,-1.679 -3,-3.64 -3.964,-5.883c-0.963,-2.244 -1.445,-4.645 -1.445,-7.205c0,-2.34 0.406,-4.542 1.218,-6.606c0.812,-2.064 1.927,-3.909 3.344,-5.533c1.418,-1.624 3.097,-2.972 5.037,-4.046c1.941,-1.073 4.026,-1.775 6.256,-2.105l0,-2.684c-2.615,0.33 -5.044,1.101 -7.288,2.312c-2.243,1.211 -4.197,2.752 -5.863,4.624c-1.665,1.872 -2.972,4.005 -3.922,6.4c-0.95,2.394 -1.424,4.941 -1.424,7.638c0,2.918 0.55,5.663 1.651,8.237c1.101,2.574 2.608,4.817 4.521,6.73c1.913,1.913 4.156,3.42 6.73,4.521c2.574,1.101 5.319,1.651 8.237,1.651c2.918,0 5.663,-0.55 8.237,-1.651c2.574,-1.101 4.817,-2.608 6.73,-4.521c1.913,-1.913 3.42,-4.156 4.521,-6.73c1.101,-2.574 1.651,-5.319 1.651,-8.237c0,-1.982 -0.261,-3.895 -0.784,-5.739c-0.523,-1.844 -1.266,-3.558 -2.23,-5.14c-0.963,-1.583 -2.112,-3.021 -3.447,-4.315c-1.335,-1.294 -2.815,-2.395 -4.439,-3.303Z" style="fill-rule:nonzero;"/></svg>