<?xml version="1.0" encoding="UTF-8" standalone="no"?><!DOCTYPE svg PUBLIC "-//W3C//DTD SVG 1.1//EN" "http://www.w3.org/Graphics/SVG/1.1/DTD/svg11.dtd"><svg width="100%" height="100%" viewBox="0 0 64 64" version="1.1" xmlns="http://www.w3.org/2000/svg" xmlns:xlink="http://www.w3.org/1999/xlink" xml:space="preserve" xmlns:serif="http://www.serif.com/" style="fill-rule:evenodd;clip-rule:evenodd;stroke-linejoin:round;stroke-miterlimit:2;"><path d="M31.957,18.248c-7.644,0 -13.837,6.15 -13.837,13.752c0,2.99 0.982,5.808 2.648,8.072l-1.751,5.125l5.338,-1.709c2.178,1.452 4.826,2.264 7.645,2.264c7.645,0 13.88,-6.15 13.88,-13.752c-0.043,-7.602 -6.278,-13.752 -13.923,-13.752Zm8.115,19.432c-0.342,0.94 -2.008,1.837 -2.734,1.922c-0.726,0.085 -0.726,0.598 -4.868,-0.982c-4.1,-1.623 -6.705,-5.766 -6.919,-6.065c-0.213,-0.256 -1.665,-2.178 -1.665,-4.142c0,-1.965 1.025,-2.947 1.409,-3.332c0.384,-0.384 0.811,-0.512 1.068,-0.512c0.256,0 0.555,0.043 0.768,0.043c0.257,0 0.556,-0.129 0.897,0.683c0.342,0.811 1.153,2.776 1.239,2.989c0.085,0.214 0.171,0.428 0.042,0.684c-0.128,0.256 -0.213,0.427 -0.384,0.683c-0.213,0.214 -0.427,0.513 -0.598,0.683c-0.213,0.214 -0.427,0.427 -0.171,0.812c0.257,0.384 1.068,1.708 2.264,2.776c1.537,1.366 2.861,1.794 3.246,2.007c0.384,0.214 0.64,0.171 0.854,-0.085c0.256,-0.257 1.025,-1.153 1.281,-1.58c0.256,-0.385 0.555,-0.342 0.897,-0.214c0.384,0.128 2.349,1.11 2.776,1.324c0.384,0.213 0.683,0.299 0.769,0.47c0.128,0.085 0.128,0.897 -0.171,1.836Z" style="fill-rule:nonzero;"/><path d="M45.389,5.094l-26.821,0c-7.431,0 -13.495,6.065 -13.495,13.496l0,26.863c0,7.388 6.064,13.453 13.495,13.453l26.864,0c7.431,0 13.495,-6.065 13.495,-13.496l0,-26.82c-0.043,-7.431 -6.107,-13.496 -13.538,-13.496Zm-13.111,42.836c-2.905,0 -5.595,-0.726 -7.987,-2.05l-9.139,2.904l2.989,-8.755c-1.494,-2.477 -2.349,-5.381 -2.349,-8.456c0,-9.054 7.389,-16.357 16.486,-16.357c9.096,0 16.485,7.303 16.485,16.357c0,9.054 -7.389,16.357 -16.485,16.357Z" style="fill-rule:nonzero;"/></svg>