<svg
    width="100%"
    height="100%"
    viewBox="0 0 160 37"
    version="1.1"
    xmlns="http://www.w3.org/2000/svg"
    xml:space="preserve"
    style="fill-rule:evenodd;clip-rule:evenodd;stroke-linejoin:round;stroke-miterlimit:2;"
>
    <g transform="matrix(1,0,0,1,-265.26,-0.61)">
        <g id="henk">
            <path d="M286.75,15.23L271.41,15.23L271.41,0.61L265.26,0.61L265.26,36.51L271.41,36.51L271.41,21.08L286.75,21.08L286.75,36.51L292.9,36.51L292.9,0.61L286.75,0.61L286.75,15.23Z"
                  style="fill:currentcolor;fill-rule:nonzero;"/>
            <path d="M316.91,21.03L331.27,21.03L331.27,15.18L316.91,15.18L316.91,6.46L332.5,6.46L332.5,0.61L310.76,0.61L310.76,36.51L332.81,36.51L332.81,30.67L316.91,30.67L316.91,21.03Z"
                  style="fill:currentcolor;fill-rule:nonzero;"/>
            <path d="M372.51,25.33L354.56,0.61L349.02,0.61L349.02,36.51L355.18,36.51L355.18,11.85L373.13,36.51L378.67,36.51L378.67,0.61L372.51,0.61L372.51,25.33Z"
                  style="fill:currentcolor;fill-rule:nonzero;"/>
            <g transform="matrix(1,0,0,1,-5.29,-6.22)">
                <path d="M429.74,37.65C426.89,38.26 424.03,36.75 421.19,31.65L416.1,22.43L428.49,6.83L420.79,6.83L408,22.94L408,6.83L401.85,6.83L401.85,42.73L408,42.73L408,32.59L412.09,27.46L415.76,34.1C420.09,41.94 425.14,44.33 430.52,42.98L429.74,37.65Z"
                      style="fill:currentcolor;fill-rule:nonzero;"/>
            </g>
        </g>
    </g>
</svg>