<svg width="24" height="24" viewBox="0 0 24 24" fill="none" xmlns="http://www.w3.org/2000/svg">
    <path d="M10.7855 13.8735L13.9571 12L10.7855 10.1265V13.8735Z" fill="currentcolor" />
    <path
        d="M12 2C6.61604 2 2.25 6.47799 2.25 12C2.25 17.522 6.61604 22 12 22C17.384 22 21.75 17.522 21.75 12C21.75 6.47799 17.384 2 12 2ZM18.0922 12.0102C18.0922 12.0102 18.0922 14.0383 17.8414 15.0162C17.7008 15.5515 17.2894 15.9736 16.7675 16.1176C15.814 16.375 12 16.375 12 16.375C12 16.375 8.196 16.375 7.23256 16.1074C6.71066 15.9633 6.29916 15.5411 6.15857 15.0058C5.90759 14.0382 5.90759 12 5.90759 12C5.90759 12 5.90759 9.9721 6.15857 8.99415C6.29901 8.4589 6.72063 8.02645 7.23256 7.8824C8.18605 7.625 12 7.625 12 7.625C12 7.625 15.814 7.625 16.7675 7.89265C17.2894 8.0367 17.7008 8.4589 17.8414 8.99415C18.1024 9.9721 18.0922 12.0102 18.0922 12.0102Z"
        fill="currentcolor" />
</svg>