<svg width="24" height="24" viewBox="0 0 24 24" fill="none" xmlns="http://www.w3.org/2000/svg">
    <path fill-rule="evenodd" clip-rule="evenodd"
        d="M16.5818 13.9851C16.333 13.8612 15.1097 13.2622 14.8816 13.1795C14.6536 13.0968 14.4877 13.0556 14.3218 13.3034C14.1559 13.5512 13.6791 14.1091 13.5339 14.2744C13.3888 14.4396 13.2436 14.4604 12.9948 14.3363C12.746 14.2124 11.9443 13.951 10.9939 13.1072C10.2542 12.4506 9.75483 11.6397 9.60972 11.3918C9.46454 11.1439 9.59418 11.0099 9.71877 10.8864C9.83075 10.7755 9.96766 10.5972 10.092 10.4526C10.2164 10.308 10.2579 10.2047 10.3408 10.0395C10.4238 9.87416 10.3823 9.72961 10.3201 9.60569C10.2579 9.48173 9.76027 8.26281 9.55292 7.76695C9.35095 7.28413 9.14582 7.34953 8.99309 7.34187C8.84812 7.3347 8.68207 7.33317 8.51622 7.33317C8.35035 7.33317 8.08076 7.39515 7.85264 7.64299C7.62463 7.8909 6.98182 8.49005 6.98182 9.70883C6.98182 10.9278 7.87337 12.1052 7.99782 12.2705C8.12226 12.4358 9.75232 14.937 12.2484 16.0096C12.842 16.2648 13.3055 16.4171 13.6669 16.5313C14.2629 16.7198 14.8053 16.6931 15.2341 16.6294C15.7121 16.5583 16.7062 16.0304 16.9136 15.452C17.1209 14.8734 17.1209 14.3776 17.0587 14.2744C16.9965 14.1711 16.8306 14.1091 16.5818 13.9851ZM12.0418 20.1544H12.0385C10.5533 20.1538 9.09658 19.7567 7.82578 19.0062L7.52353 18.8277L4.39094 19.6455L5.22706 16.6058L5.03032 16.2942C4.20179 14.9827 3.76417 13.4669 3.76482 11.9105C3.76664 7.36881 7.47967 3.67383 12.0451 3.67383C14.2559 3.67462 16.334 4.53254 17.8967 6.08958C19.4594 7.64652 20.3195 9.7161 20.3186 11.9171C20.3168 16.4591 16.6038 20.1544 12.0418 20.1544ZM19.086 4.90644C17.2059 3.03317 14.7057 2.00107 12.0417 2C6.55291 2 2.08566 6.44559 2.08344 11.9098C2.08272 13.6566 2.54125 15.3614 3.41268 16.8645L2 22L7.27894 20.6219C8.73349 21.4114 10.3711 21.8276 12.0378 21.8281H12.0419C17.5301 21.8281 21.9977 17.3821 22 11.9178C22.001 9.26967 20.9661 6.77968 19.086 4.90644Z"
        fill="currentcolor" />
</svg>