<svg width="24" height="24" viewBox="0 0 24 24" fill="none" xmlns="http://www.w3.org/2000/svg">
    <path
        d="M13.9141 12C13.9141 13.0572 13.0572 13.9141 12 13.9141C10.9428 13.9141 10.0859 13.0572 10.0859 12C10.0859 10.9428 10.9428 10.0859 12 10.0859C13.0572 10.0859 13.9141 10.9428 13.9141 12Z"
        fill="currentcolor" />
    <path
        d="M16.4763 8.61345C16.3843 8.36415 16.2375 8.13845 16.0468 7.9532C15.8615 7.7625 15.636 7.6157 15.3865 7.5237C15.1842 7.4451 14.8803 7.35155 14.3204 7.3261C13.7148 7.29845 13.5332 7.2925 12 7.2925C10.4667 7.2925 10.285 7.2983 9.6796 7.32595C9.11975 7.35155 8.81565 7.4451 8.61345 7.5237C8.364 7.6157 8.1383 7.7625 7.9532 7.9532C7.7625 8.13845 7.6157 8.364 7.52355 8.61345C7.44495 8.8158 7.3514 9.1199 7.32595 9.67975C7.2983 10.2852 7.29235 10.4668 7.29235 12.0001C7.29235 13.5333 7.2983 13.7149 7.32595 14.3205C7.3514 14.8804 7.44495 15.1843 7.52355 15.3867C7.6157 15.6361 7.76235 15.8617 7.95305 16.0469C8.1383 16.2376 8.36385 16.3844 8.6133 16.4764C8.81565 16.5552 9.11975 16.6488 9.6796 16.6742C10.285 16.7019 10.4665 16.7076 11.9999 16.7076C13.5334 16.7076 13.7149 16.7019 14.3202 16.6742C14.8801 16.6488 15.1842 16.5552 15.3865 16.4764C15.8873 16.2833 16.2832 15.8875 16.4763 15.3867C16.5549 15.1843 16.6485 14.8804 16.6741 14.3205C16.7017 13.7149 16.7075 13.5333 16.7075 12.0001C16.7075 10.4668 16.7017 10.2852 16.6741 9.67975C16.6486 9.1199 16.5551 8.8158 16.4763 8.61345ZM12 14.9486C10.3714 14.9486 9.05125 13.6286 9.05125 12C9.05125 10.3714 10.3714 9.0514 12 9.0514C13.6284 9.0514 14.9486 10.3714 14.9486 12C14.9486 13.6286 13.6284 14.9486 12 14.9486ZM15.0652 9.6239C14.6846 9.6239 14.3761 9.31535 14.3761 8.9348C14.3761 8.55425 14.6846 8.24575 15.0652 8.24575C15.4457 8.24575 15.7542 8.55425 15.7542 8.9348C15.7541 9.31535 15.4457 9.6239 15.0652 9.6239Z"
        fill="currentcolor" />
    <path
        d="M12 2C6.47799 2 2 6.47799 2 12C2 17.522 6.47799 22 12 22C17.522 22 22 17.522 22 12C22 6.47799 17.522 2 12 2ZM17.7076 14.3674C17.6798 14.9787 17.5826 15.396 17.4406 15.7613C17.1423 16.5326 16.5326 17.1423 15.7613 17.4406C15.3962 17.5826 14.9786 17.6797 14.3675 17.7076C13.7552 17.7355 13.5596 17.7422 12.0001 17.7422C10.4405 17.7422 10.2451 17.7355 9.6326 17.7076C9.0215 17.6797 8.604 17.5826 8.23885 17.4406C7.85555 17.2965 7.5086 17.0705 7.2217 16.7783C6.92966 16.4916 6.70368 16.1445 6.55948 15.7613C6.41757 15.3962 6.32037 14.9786 6.2926 14.3675C6.26437 13.755 6.25781 13.5595 6.25781 12C6.25781 10.4405 6.26437 10.2449 6.29245 9.6326C6.32022 9.02135 6.41727 8.604 6.55918 8.2387C6.70337 7.85555 6.92951 7.5084 7.2217 7.2217C7.5084 6.92951 7.85555 6.70352 8.2387 6.55933C8.604 6.41742 9.02135 6.32037 9.6326 6.29245C10.2449 6.26452 10.4405 6.25781 12 6.25781C13.5595 6.25781 13.7551 6.26452 14.3674 6.2926C14.9787 6.32037 15.396 6.41742 15.7613 6.55918C16.1445 6.70337 16.4916 6.92951 16.7785 7.2217C17.0705 7.5086 17.2966 7.85555 17.4406 8.2387C17.5827 8.604 17.6798 9.02135 17.7077 9.6326C17.7356 10.2449 17.7422 10.4405 17.7422 12C17.7422 13.5595 17.7357 13.7551 17.7076 14.3674Z"
        fill="currentcolor" />
</svg>