<svg
  width="24"
  height="24"
  viewBox="0 0 24 24"
  fill="none"
  xmlns="http://www.w3.org/2000/svg"
> 
  <path
    fill-rule="evenodd"
    clip-rule="evenodd"
    d="M3.86389 6.43012H20.1361V21.993H3.86389V6.43012ZM4.5976 7.16383V21.2592H19.4024V7.16383H4.5976Z"
    fill="currentcolor" 
  />
  <path
    fill-rule="evenodd"
    clip-rule="evenodd"
    d="M12 2.74079C10.9194 2.74079 9.88339 3.16844 9.11971 3.92921C8.35607 4.68995 7.92733 5.72143 7.92733 6.79665V7.1635H7.19362V6.79665C7.19362 5.52593 7.70035 4.30754 8.60188 3.40942C9.50337 2.51136 10.7257 2.00708 12 2.00708C13.2743 2.00708 14.4967 2.51136 15.3982 3.40941C16.2997 4.30753 16.8065 5.52593 16.8065 6.79665V7.1635H16.0728V6.79665C16.0728 5.72143 15.644 4.68995 14.8804 3.92921C14.1167 3.16844 13.0806 2.74079 12 2.74079Z"
    fill="currentcolor"
  />
  <path
    fill-rule="evenodd"
    clip-rule="evenodd"
    d="M12.3668 9.87691V13.5191H16.0229V14.2529H12.3668V17.895H11.6331V14.2529H7.97695V13.5191H11.6331V9.87691H12.3668Z"
    fill="currentcolor"
  /> 
</svg>