<svg width="24" height="24" viewBox="0 0 24 24" fill="none" xmlns="http://www.w3.org/2000/svg">
    <path
        d="M5.63819 19.7381V18.7018C5.63905 18.6876 5.63956 18.6733 5.63956 18.6589C5.63956 18.3219 5.36384 18.0443 5.02871 18.0443C5.01669 18.0443 5.00467 18.0446 4.99265 18.0455C4.76191 18.0303 4.54043 18.1431 4.41596 18.339C4.30231 18.1488 4.09371 18.036 3.87344 18.0455C3.68166 18.0356 3.4983 18.1293 3.39271 18.2906V18.0869H3.03578V19.7381H3.39615V18.8227C3.39375 18.8051 3.39254 18.7873 3.39254 18.7695C3.39254 18.5577 3.56577 18.3834 3.77643 18.3834C3.78364 18.3834 3.79068 18.3836 3.79789 18.3839C4.03482 18.3839 4.155 18.5394 4.155 18.8192V19.7381H4.51554V18.8227C4.51331 18.8063 4.51227 18.7895 4.51227 18.7729C4.51227 18.5594 4.68705 18.3835 4.89943 18.3835C4.90526 18.3835 4.91127 18.3837 4.91711 18.3839C5.1609 18.3839 5.27765 18.5394 5.27765 18.8192V19.7381H5.63819ZM10.9733 18.0869H10.3898V17.586H10.0292V18.0869H9.69615V18.415H10.0292V19.1682C10.0292 19.5515 10.1769 19.7796 10.5992 19.7796C10.7568 19.7801 10.9117 19.7359 11.0454 19.6517L10.9424 19.3444C10.8468 19.4017 10.7381 19.4339 10.6267 19.4377C10.4481 19.4377 10.3898 19.3269 10.3898 19.1613V18.415H10.9733V18.0869ZM14.0187 18.0455C13.8415 18.0401 13.6753 18.1331 13.586 18.2872V18.0869H13.2325V19.7381H13.5895V18.8123C13.5895 18.5394 13.7062 18.3873 13.9397 18.3873C14.0161 18.3863 14.092 18.4005 14.1629 18.4288L14.2728 18.0904C14.1912 18.061 14.1052 18.0458 14.0187 18.0455ZM9.41476 18.2181C9.21269 18.0973 8.98022 18.0372 8.74518 18.0455C8.3297 18.0455 8.06205 18.2457 8.06205 18.5739C8.06205 18.8434 8.2612 19.0093 8.62844 19.0611L8.79669 19.0853C8.99241 19.1129 9.08512 19.1647 9.08512 19.258C9.08512 19.3857 8.95464 19.4584 8.71085 19.4584C8.51478 19.4639 8.32249 19.4031 8.16506 19.2857L7.99681 19.5653C8.20472 19.7115 8.45384 19.7866 8.70742 19.7796C9.18127 19.7796 9.45579 19.555 9.45579 19.2407C9.45579 18.9505 9.23964 18.7985 8.88253 18.7467L8.71428 18.7225C8.55976 18.7018 8.43615 18.6707 8.43615 18.5601C8.43615 18.4392 8.5529 18.3666 8.74862 18.3666C8.92837 18.3694 9.10435 18.4181 9.26024 18.5083L9.41476 18.2181ZM18.9797 18.0455C18.8025 18.0401 18.6363 18.1331 18.5471 18.2872V18.0869H18.1936V19.7381H18.5505V18.8123C18.5505 18.5394 18.6672 18.3873 18.9007 18.3873C18.9771 18.3863 19.053 18.4005 19.1239 18.4288L19.2338 18.0904C19.1523 18.061 19.0662 18.0458 18.9797 18.0455ZM14.3792 18.9125C14.3787 18.9239 14.3785 18.9353 14.3785 18.9467C14.3785 19.4043 14.7528 19.7809 15.2076 19.7809C15.2232 19.7809 15.239 19.7804 15.2546 19.7796C15.4689 19.7904 15.6797 19.7201 15.8451 19.5826L15.6736 19.2926C15.5501 19.3872 15.3995 19.4392 15.2443 19.441C14.9681 19.4242 14.7501 19.1908 14.7501 18.9125C14.7501 18.634 14.9681 18.4008 15.2443 18.3839C15.3995 18.3858 15.5501 18.4378 15.6736 18.5325L15.8451 18.2422C15.6797 18.1049 15.4689 18.0346 15.2546 18.0455C15.239 18.0444 15.2232 18.0441 15.2076 18.0441C14.7528 18.0441 14.3785 18.4207 14.3785 18.8783C14.3785 18.8897 14.3787 18.9011 14.3792 18.9125ZM17.7231 19.7381V18.0869H17.366V18.2872C17.2426 18.127 17.0491 18.0367 16.8477 18.0455C16.3909 18.0679 16.0271 18.4523 16.0271 18.9125C16.0271 19.3727 16.3909 19.7571 16.8477 19.7796C17.0491 19.7882 17.2426 19.698 17.366 19.5377V19.7381H17.7231ZM16.3945 18.9125C16.4094 18.6494 16.6286 18.4411 16.8906 18.4411C17.1631 18.4411 17.3875 18.6667 17.3875 18.941C17.3875 19.2147 17.1643 19.4401 16.8924 19.441C16.8901 19.4411 16.8879 19.4411 16.8857 19.4411C16.6156 19.4411 16.3934 19.2174 16.3934 18.9457C16.3934 18.9346 16.3938 18.9236 16.3945 18.9125ZM12.0858 18.0455C11.6304 18.0695 11.2686 18.4532 11.2686 18.912C11.2686 19.38 11.6448 19.768 12.1099 19.7796C12.3547 19.7882 12.5944 19.7058 12.7827 19.5481L12.6076 19.2822C12.4721 19.3914 12.3041 19.4522 12.1303 19.4548C11.8867 19.4755 11.6676 19.2952 11.6395 19.0507H12.8583C12.8617 19.0058 12.8651 18.9609 12.8651 18.9125C12.8617 18.3977 12.5458 18.0455 12.0858 18.0455ZM12.0788 18.3666C12.302 18.3623 12.4893 18.543 12.4943 18.7674H11.6429C11.6558 18.5383 11.851 18.359 12.0788 18.3666ZM21.0362 19.7381V17.4236H20.6792V18.2872C20.5556 18.127 20.3621 18.0368 20.1607 18.0455C19.7039 18.0679 19.3402 18.4523 19.3402 18.9125C19.3402 19.3727 19.7039 19.7571 20.1607 19.7796C20.3621 19.7882 20.5556 19.698 20.6792 19.5377V19.7381H21.0362ZM21.6314 19.4988C21.6535 19.4987 21.6755 19.5032 21.6959 19.5118C21.7157 19.5199 21.7335 19.5318 21.7488 19.5469C21.7639 19.5619 21.776 19.5797 21.7844 19.5992C21.8017 19.6398 21.8017 19.6859 21.7844 19.7265C21.776 19.746 21.7638 19.7637 21.7488 19.7787C21.7335 19.7936 21.7157 19.8056 21.6959 19.8139C21.6757 19.8227 21.6535 19.8272 21.6314 19.8271C21.5648 19.8278 21.5038 19.788 21.4774 19.7265C21.46 19.6859 21.46 19.6398 21.4774 19.5992C21.4856 19.5797 21.4977 19.5619 21.5128 19.5469C21.5279 19.5318 21.5459 19.5199 21.5656 19.5118C21.5866 19.503 21.6089 19.4987 21.6314 19.4988ZM21.6314 19.791C21.6484 19.791 21.665 19.7877 21.6807 19.7808C21.6956 19.7744 21.7092 19.765 21.7205 19.7535C21.7696 19.7037 21.7696 19.6222 21.7205 19.5724C21.7092 19.5609 21.6956 19.5517 21.6807 19.5453C21.665 19.5386 21.6484 19.5353 21.6314 19.5355C21.6142 19.5353 21.5972 19.5387 21.5813 19.5453C21.5662 19.5515 21.5522 19.5609 21.5407 19.5724C21.4916 19.6222 21.4916 19.7037 21.5407 19.7535C21.5524 19.765 21.5662 19.7744 21.5813 19.7808C21.5971 19.7875 21.6142 19.791 21.6314 19.791ZM21.641 19.5861C21.6571 19.585 21.6729 19.5897 21.686 19.5992C21.6965 19.6078 21.7023 19.6211 21.7018 19.6348C21.7021 19.6465 21.6977 19.6578 21.6892 19.6659C21.6793 19.6749 21.6668 19.6802 21.6534 19.6811L21.703 19.7386H21.6642L21.6182 19.6814H21.6034V19.7386H21.5711V19.5861H21.641ZM21.6034 19.6148V19.6553H21.6407C21.6477 19.6557 21.6549 19.654 21.6611 19.6503C21.6661 19.6469 21.669 19.641 21.6686 19.6348C21.669 19.6287 21.6661 19.623 21.6611 19.6198C21.6549 19.6161 21.6477 19.6144 21.6407 19.6148H21.6034ZM19.7075 18.9125C19.7226 18.6494 19.9418 18.4411 20.2037 18.4411C20.4763 18.4411 20.7005 18.6667 20.7005 18.941C20.7005 19.2147 20.4773 19.4401 20.2054 19.441C20.2031 19.4411 20.2009 19.4411 20.1987 19.4411C19.9286 19.4411 19.7064 19.2174 19.7064 18.9457C19.7064 18.9346 19.7068 18.9236 19.7075 18.9125ZM7.65 19.7381V18.0869H7.2929V18.2872C7.16945 18.127 6.97596 18.0367 6.77458 18.0455C6.31772 18.0679 5.95392 18.4523 5.95392 18.9125C5.95392 19.3727 6.31772 19.7571 6.77458 19.7796C6.97596 19.7882 7.16945 19.698 7.2929 19.5377V19.7381H7.65ZM6.32133 18.9125C6.33626 18.6494 6.5555 18.4411 6.8175 18.4411C7.08996 18.4411 7.31436 18.6667 7.31436 18.941C7.31436 19.2147 7.09117 19.4401 6.81922 19.441C6.81698 19.4411 6.81475 19.4411 6.81252 19.4411C6.54246 19.4411 6.3203 19.2174 6.3203 18.9457C6.3203 18.9346 6.32064 18.9236 6.32133 18.9125Z"
        fill="currentcolor" />
    <path fill-rule="evenodd" clip-rule="evenodd" d="M9.29612 5.50264H14.7042V15.2814H9.29612V5.50264Z"
        fill="#FF5F00" />
    <path
        d="M9.6395 10.392C9.63778 8.48504 10.5093 6.67995 12.0002 5.50247C10.9113 4.6413 9.56567 4.17297 8.18068 4.17297C4.79006 4.17297 2 6.98037 2 10.392C2 13.8037 4.79006 16.6111 8.18068 16.6111C9.56567 16.6111 10.9113 16.1426 12.0002 15.2814C10.5093 14.1041 9.63778 12.2989 9.6395 10.392Z"
        fill="#EB001B" />
    <path
        d="M22 10.3917V10.3922C22 13.8037 19.2101 16.6111 15.8197 16.6111C14.4347 16.6111 13.089 16.1426 12.0002 15.2814C13.4897 14.1029 14.3609 12.2985 14.3609 10.392C14.3609 8.48538 13.4897 6.68098 12.0002 5.50247C13.089 4.6413 14.4347 4.17297 15.8197 4.17297C19.2101 4.17297 22 6.98019 22 10.3917Z"
        fill="#F79E1B" />
    <path
        d="M21.4103 14.2456V14.0454H21.4904V14.0046H21.2861V14.0454H21.3665V14.2456H21.4103ZM21.807 14.2456V14.0041H21.7444L21.6723 14.1701L21.6003 14.0041H21.5377V14.2456H21.5818V14.0635L21.6494 14.2204H21.6953L21.7627 14.063V14.2456H21.807Z"
        fill="#F79E1B" />
</svg>