<svg width="24" height="24" viewBox="0 0 24 24" fill="none" xmlns="http://www.w3.org/2000/svg">
    <path
        d="M5.6961 19.6957C5.6961 20.0435 5.8193 20.3478 6.06571 20.6087C6.31211 20.8696 6.59959 21 6.92813 21C7.25667 21 7.54415 20.8696 7.79055 20.6087C8.03696 20.3478 8.16016 20.0435 8.16016 19.6957C8.16016 19.3478 8.03696 19.0435 7.79055 18.7826C7.54415 18.5217 7.25667 18.3913 6.92813 18.3913C6.59959 18.3913 6.31211 18.5217 6.06571 18.7826C5.8193 19.087 5.6961 19.3478 5.6961 19.6957ZM16.6612 19.6957C16.6612 20.0435 16.7844 20.3478 17.0308 20.6087C17.2772 20.8696 17.5647 21 17.8932 21C18.2218 21 18.5092 20.8696 18.7556 20.6087C19.0021 20.3478 19.1253 20.0435 19.1253 19.6957C19.1253 19.3478 19.0021 19.0435 18.7556 18.7826C18.5092 18.5217 18.2218 18.3913 17.8932 18.3913C17.5647 18.3913 17.2772 18.5217 17.0308 18.7826C16.8255 19.087 16.6612 19.3478 16.6612 19.6957ZM5.44969 5.65217L4.99795 3.52174C4.91581 3.17391 4.75154 3 4.423 3H2V4.21739H3.84805L4.58727 7.65217L5.77823 13.3913L5.12115 16.3913C5.08008 16.5652 5.16222 16.7826 5.24435 16.913C5.36756 17.087 5.49076 17.1739 5.73717 17.1739H20.193V15.9565H6.47639L6.72279 14.6957H19.2485L21.4661 7.30435C21.6304 6.73913 22 5.6087 22 5.6087H20.3984"
        fill="currentcolor" />
</svg>