<svg width="24" height="24" viewBox="0 0 24 24" fill="none" xmlns="http://www.w3.org/2000/svg">
    <path fill-rule="evenodd" clip-rule="evenodd"
        d="M3.55803 6.10748H20.4429C21.5606 6.10748 21.9078 6.92745 21.9078 7.50695V16.4938C21.9078 17.0513 21.5604 17.8931 20.4429 17.8931H3.55803C2.45114 17.8931 2.09302 17.0513 2.09302 16.4938V7.50695C2.09302 6.92745 2.45114 6.10748 3.55803 6.10748Z"
        fill="white" />
    <path fill-rule="evenodd" clip-rule="evenodd"
        d="M2.49398 6.65852C2.28513 6.91278 2.20125 7.2367 2.20125 7.50662V16.4935C2.20125 16.7519 2.28485 17.0762 2.49431 17.3337C2.70055 17.5872 3.03522 17.7842 3.55764 17.7842H20.4425C20.9705 17.7842 21.3049 17.587 21.5096 17.3339C21.7175 17.0768 21.7987 16.7525 21.7987 16.4935V7.50662C21.7987 7.23602 21.7172 6.91219 21.5099 6.65827C21.3058 6.40828 20.9716 6.21578 20.4425 6.21578H3.55764C3.03421 6.21578 2.69971 6.40808 2.49398 6.65852ZM2.32612 6.52063C2.57617 6.21622 2.97418 5.99854 3.55764 5.99854H20.4425C21.0311 5.99854 21.4293 6.21602 21.6782 6.52088C21.9239 6.82182 22.016 7.19773 22.016 7.50662V16.4935C22.016 16.7919 21.9236 17.1674 21.6785 17.4705C21.4301 17.7777 21.032 18.0014 20.4425 18.0014H3.55764C2.97317 18.0014 2.57533 17.7775 2.32579 17.4707C2.07947 17.168 1.98401 16.7926 1.98401 16.4935V7.50662C1.98401 7.19704 2.07919 6.82124 2.32612 6.52063Z"
        fill="#2D78BB" />
    <path fill-rule="evenodd" clip-rule="evenodd"
        d="M8.02814 12.9404H11.1099L12.8353 11.0927H15.9277L13.3018 14.0226H3.58997V12.0658H8.79853L8.02814 12.9404Z"
        fill="#2D78BB" />
    <path fill-rule="evenodd" clip-rule="evenodd"
        d="M15.9281 11.0926H12.8358L11.1103 12.951H8.00684L10.6328 10.0211H20.3556V11.9671H15.1469L15.9281 11.0926Z"
        fill="#F8E14B" />
    <path fill-rule="evenodd" clip-rule="evenodd"
        d="M4.77279 16.3951L5.27189 15.6734V17.1054H5.92302L5.93383 14.6237H5.27189L4.77279 15.3673L4.26277 14.6237H3.60083L3.61175 17.1054H4.26277V15.6734L4.77279 16.3951ZM11.8478 16.1107C11.9129 15.9685 12.0539 15.8484 12.2383 15.8484C12.3361 15.8484 12.4446 15.892 12.5206 15.9467V15.4111C12.4663 15.3455 12.3796 15.3234 12.2928 15.3234C12.141 15.3234 11.9346 15.4111 11.8478 15.5204V15.3455H11.2619V17.1056H11.8478V16.1107ZM6.85624 16.9963C7.06243 17.0837 7.31198 17.1165 7.47471 17.1165C8.1041 17.1165 8.28856 16.7885 8.28856 16.5152C8.28856 16.198 7.96299 16.0233 7.67009 15.9795C7.62662 15.9795 7.50725 15.9467 7.50725 15.8918C7.50725 15.8483 7.53992 15.7935 7.6809 15.7935C7.80027 15.7935 8.01727 15.8374 8.12584 15.8918L8.10421 15.4328C7.94137 15.3782 7.71356 15.3345 7.53992 15.3345C7.18181 15.3345 6.86704 15.5532 6.86704 15.9029C6.86704 16.1763 7.06243 16.3184 7.37707 16.384C7.50725 16.3951 7.62662 16.4497 7.62662 16.5153C7.62662 16.6027 7.53992 16.6247 7.45297 16.6247C7.37707 16.6247 7.18181 16.6464 6.85624 16.5153V16.9963Z"
        fill="#2D78BB" />
    <path fill-rule="evenodd" clip-rule="evenodd"
        d="M9.08079 16.5698V15.8484H9.41716V15.3783H9.05905V14.6237L8.44059 14.952V15.3783H8.22359V15.8812H8.44059V16.6685C8.44059 17.062 8.95061 17.3243 9.41728 16.9965V16.5699C9.31942 16.6685 9.08079 16.6902 9.08079 16.5698ZM6.74768 17.0837V15.3783H6.09655V17.0837H6.74768ZM6.42211 15.3234C6.6175 15.3234 6.78022 15.1595 6.78022 14.9627C6.78022 14.7769 6.61738 14.6237 6.42211 14.6237C6.23766 14.6237 6.08574 14.7769 6.08574 14.9627C6.08586 15.1595 6.23766 15.3234 6.42211 15.3234ZM17.1216 16.9963C17.3277 17.0837 17.5773 17.1165 17.7401 17.1165C18.3695 17.1165 18.5646 16.7885 18.5646 16.5152C18.5646 16.198 18.2392 16.0233 17.9353 15.9795C17.8919 15.9795 17.7725 15.9467 17.7725 15.8918C17.7725 15.8483 17.805 15.7935 17.957 15.7935C18.0763 15.7935 18.2825 15.8374 18.4018 15.8918L18.3694 15.4328C18.2066 15.3782 17.9786 15.3345 17.805 15.3345C17.447 15.3345 17.1322 15.5532 17.1322 15.9029C17.1322 16.1763 17.3276 16.3184 17.6424 16.384C17.7725 16.3951 17.8919 16.4497 17.8919 16.5153C17.8919 16.6027 17.805 16.6247 17.7183 16.6247C17.6424 16.6247 17.447 16.6464 17.1216 16.5153V16.9963ZM15.2118 16.384C15.0055 16.537 14.8427 16.5698 14.5714 16.5698C14.1593 16.5698 13.7903 16.2309 13.7903 15.8812C13.7903 15.4984 13.9964 15.1377 14.5714 15.1377C14.832 15.1377 15.0489 15.1815 15.2118 15.3345V14.7442C15.0055 14.6237 14.7235 14.591 14.4739 14.591C13.7251 14.591 13.1501 15.1266 13.1501 15.8593C13.1501 16.5807 13.7794 17.1274 14.5172 17.1274C14.7668 17.1274 15.0055 17.0725 15.2118 16.9525V16.384ZM19.2592 15.5095V14.6239H18.6516V17.1056H19.2592V16.1326C19.2592 15.8046 19.7583 15.7937 19.7583 16.1326V17.1056H20.3768V15.9796C20.3768 15.4766 19.7908 15.1266 19.2592 15.5095Z"
        fill="#2D78BB" />
    <path fill-rule="evenodd" clip-rule="evenodd"
        d="M19.1074 9.29957C18.9663 9.38697 18.7819 9.43078 18.6081 9.43078C18.109 9.43078 17.6641 9.05911 17.6641 8.54529C17.6641 8.03135 18.0657 7.65968 18.5755 7.65968C18.7601 7.65968 18.9663 7.69245 19.1074 7.77996V8.32656C18.999 8.22812 18.8361 8.19534 18.6517 8.19534C18.4781 8.19534 18.2718 8.33749 18.2718 8.56703C18.2718 8.76379 18.4781 8.88408 18.6517 8.88408C18.8468 8.88408 18.9663 8.87315 19.1074 8.76391V9.29957ZM20.3769 8.88408V9.29957C19.9319 9.62755 19.4221 9.3542 19.4221 8.97159V8.20638H19.2049V7.70338H19.4221V7.29892L20.0296 6.97083V7.70338H20.3769V8.16257H20.0623V8.87315C20.0621 9.00437 20.2792 8.99344 20.3769 8.88408ZM15.776 8.88408V9.29957C15.3203 9.62755 14.8211 9.3542 14.8211 8.97159V8.20638H14.6039V7.70338H14.8211V7.29892L15.4395 6.97083V7.70338H15.776V8.16257H15.4505V8.87315C15.4505 9.00437 15.6782 8.99344 15.776 8.88408Z"
        fill="#2D78BB" />
    <path fill-rule="evenodd" clip-rule="evenodd"
        d="M15.4505 8.87315V8.16257H15.776V7.70338H15.4395V6.97083L14.8211 7.29892V7.70338H14.6039V8.20638H14.8211V8.97159C14.8211 9.3542 15.3203 9.62755 15.776 9.29957V8.88408C15.6782 8.99344 15.4505 9.00437 15.4505 8.87315Z"
        fill="#2D78BB" />
    <path fill-rule="evenodd" clip-rule="evenodd"
        d="M10.7084 8.76391C10.5673 8.87315 10.448 8.88408 10.2635 8.88408C10.0898 8.88408 9.87279 8.76391 9.87279 8.56703C9.87279 8.33737 10.0789 8.19534 10.2635 8.19534C10.448 8.19534 10.589 8.22812 10.7084 8.32656V7.77996C10.5673 7.69245 10.3611 7.65967 10.1767 7.65967C9.67756 7.65967 9.27598 8.03135 9.27598 8.54529C9.27598 9.05911 9.70999 9.43078 10.22 9.43078C10.4044 9.43078 10.5673 9.38709 10.7084 9.29957V8.76391ZM8.07159 7.84551V7.70338H7.453V9.3979H8.06067V8.44673C8.06067 8.11875 8.54895 8.10783 8.54895 8.44673V9.3979H9.15661V8.29367C9.15672 7.81274 8.58161 7.4628 8.07159 7.84551ZM13.4212 7.84551V7.70338H12.8136V9.3979H13.4212V8.44673C13.4212 8.11875 13.9095 8.10783 13.9095 8.44673V9.3979H14.5172V8.29367C14.5173 7.81274 13.9421 7.4628 13.4212 7.84551ZM19.1074 8.76391C18.9663 8.87315 18.8468 8.88408 18.6517 8.88408C18.4781 8.88408 18.2718 8.76391 18.2718 8.56703C18.2718 8.33737 18.4781 8.19534 18.6517 8.19534C18.8361 8.19534 18.999 8.22812 19.1074 8.32656V7.77996C18.9663 7.69245 18.7601 7.65968 18.5755 7.65968C18.0657 7.65968 17.6641 8.03135 17.6641 8.54529C17.6641 9.05911 18.109 9.43078 18.6081 9.43078C18.7819 9.43078 18.9663 9.38709 19.1074 9.29957V8.76391ZM20.0621 8.87315V8.16257H20.3768V7.70338H20.0295V6.97083L19.4221 7.29892V7.70338H19.2049V8.20638H19.4221V8.97159C19.4221 9.3542 19.9319 9.62755 20.3769 9.29957V8.88408C20.2792 8.99344 20.0621 9.00437 20.0621 8.87315Z"
        fill="#2D78BB" />
    <path fill-rule="evenodd" clip-rule="evenodd"
        d="M3.60388 6.85144V9.38721H4.81894C5.54581 9.37629 5.83875 8.48006 5.18778 8.07558C5.70849 7.60555 5.29619 6.85144 4.73212 6.85144H3.60388ZM4.10881 7.24011V7.72105H4.39083C4.58618 7.72105 4.69472 7.38222 4.38002 7.24011C4.30414 7.21826 4.10881 7.22919 4.10881 7.24011ZM4.10881 8.75938H4.39083C4.74886 8.75938 4.71633 8.24568 4.38002 8.24568H4.10881V8.75938Z"
        fill="#2D78BB" />
    <path fill-rule="evenodd" clip-rule="evenodd"
        d="M5.74094 8.2507L5.7409 8.25089C5.95695 8.13719 6.27066 8.10557 6.47072 8.1063C6.50166 8.10641 6.52987 8.1073 6.55458 8.10878C6.74981 8.1197 6.68473 8.27273 6.52205 8.27273C6.20735 8.27273 5.70837 8.38196 5.63237 8.83014C5.53616 9.30791 5.89706 9.4523 6.23798 9.45229C6.43521 9.45231 6.62577 9.40398 6.71728 9.3439L6.72808 9.39857H6.7282H7.30306H7.30318V8.23997C7.30318 8.07343 7.2226 7.94648 7.09337 7.85632C7.09114 7.85477 7.0889 7.85323 7.08665 7.8517C6.79023 7.65033 6.24695 7.63746 5.82759 7.78076L5.74079 8.25077L5.74094 8.2507ZM6.0511 8.78361C6.0511 9.02402 6.50674 8.95849 6.50674 8.729V8.52124C6.37659 8.49951 6.0511 8.56504 6.0511 8.78361Z"
        fill="#2D78BB" />
    <path fill-rule="evenodd" clip-rule="evenodd"
        d="M11.746 7.64954C11.247 7.64954 10.813 8.04309 10.813 8.54588C10.813 9.05958 11.2468 9.44211 11.7568 9.44211C12.2666 9.44211 12.6899 9.08143 12.6899 8.56773C12.6899 8.04298 12.2666 7.64954 11.746 7.64954ZM11.761 8.20802C11.5765 8.20802 11.4247 8.32818 11.4247 8.54685C11.4247 8.7545 11.5765 8.90753 11.761 8.90753C11.9454 8.90753 12.1081 8.7545 12.1081 8.56871C12.1081 8.32818 11.9454 8.20802 11.761 8.20802Z"
        fill="#2D78BB" />
    <path fill-rule="evenodd" clip-rule="evenodd"
        d="M15.9918 8.2507L15.9918 8.25089C16.2078 8.13719 16.5215 8.10557 16.7216 8.1063C16.7525 8.10641 16.7807 8.1073 16.8054 8.10878C17.0007 8.1197 16.9356 8.27273 16.7729 8.27273C16.4582 8.27273 15.9592 8.38196 15.8832 8.83014C15.787 9.30791 16.1479 9.4523 16.4888 9.45229C16.6861 9.45231 16.8766 9.40398 16.9681 9.3439L16.9789 9.39857H16.9791H17.5539H17.554V8.23997C17.554 8.07343 17.4735 7.94648 17.3442 7.85632C17.342 7.85477 17.3398 7.85323 17.3375 7.8517C17.0411 7.65033 16.4978 7.63746 16.0784 7.78076L15.9916 8.25077L15.9918 8.2507ZM16.302 8.78361C16.302 9.02402 16.7576 8.95849 16.7576 8.729V8.52124C16.6274 8.49951 16.302 8.56504 16.302 8.78361Z"
        fill="#2D78BB" />
    <path fill-rule="evenodd" clip-rule="evenodd"
        d="M15.4514 15.9168L15.4514 15.917C15.6674 15.8033 15.9811 15.7716 16.1812 15.7724C16.2121 15.7725 16.2403 15.7734 16.265 15.7749C16.4603 15.7858 16.3952 15.9388 16.2325 15.9388C15.9178 15.9388 15.4188 16.048 15.3428 16.4962C15.2466 16.974 15.6075 17.1184 15.9484 17.1184C16.1457 17.1184 16.3362 17.0701 16.4277 17.01L16.4385 17.0646H16.4386H17.0135H17.0136V15.906C17.0136 15.7395 16.9331 15.6126 16.8038 15.5224C16.8016 15.5208 16.7994 15.5193 16.7971 15.5178C16.5007 15.3164 15.9574 15.3035 15.538 15.4468L15.4512 15.9169L15.4514 15.9168ZM15.7615 16.4497C15.7615 16.6901 16.2172 16.6246 16.2172 16.3951V16.1873C16.087 16.1656 15.7615 16.2311 15.7615 16.4497Z"
        fill="#2D78BB" />
    <path fill-rule="evenodd" clip-rule="evenodd"
        d="M11.1419 16.3068C11.1419 15.7166 10.903 15.334 10.3063 15.334C9.74229 15.334 9.40588 15.7604 9.40588 16.2412C9.40588 16.766 9.80734 17.1485 10.3714 17.1485C10.8596 17.1485 11.1092 16.9518 11.1092 16.9518V16.449C10.903 16.5583 10.6753 16.6239 10.5125 16.6239C10.187 16.6239 10.0135 16.5362 10.0135 16.3068H11.1419ZM9.99239 15.968C10.0249 15.804 10.1551 15.7495 10.2745 15.7495C10.3939 15.7495 10.5457 15.8041 10.5457 15.968H9.99239Z"
        fill="#2D78BB" />
</svg>