<svg width="24" height="24" viewBox="0 0 24 24" fill="none" xmlns="http://www.w3.org/2000/svg">
    <path id="search"
        d="M19.1429 17.375C20.3851 15.75 21.1304 13.625 21.1304 11.5C21.1304 6.25 16.9068 2 11.5652 2C6.34783 2 2 6.25 2 11.5C2 16.75 6.2236 21.125 11.5652 21.125C13.8012 21.125 15.7888 20.375 17.4037 19.125L20.3851 22L22 20.375L19.1429 17.375ZM4.48447 11.5C4.48447 7.5 7.71429 4.25 11.6894 4.25C15.6646 4.25 18.8944 7.5 18.8944 11.5C18.8944 15.5 15.6646 18.75 11.6894 18.75C7.71429 18.75 4.48447 15.5 4.48447 11.5Z"
        fill="currentcolor" />
</svg>