<svg 
    width="24" 
    height="24" 
    viewBox="0 0 24 24" 
    fill="none" 
    xmlns="http://www.w3.org/2000/svg"
    id="icon-truck-fast"
>    
    <path id="truck" d="M5.40326 6.5C5.21391 6.50081 5.06057 6.66135 5.05981 6.85978C5.06057 7.05804 5.21391 7.21858 5.40326 7.21939H14.9107V15.445H10.5731C10.4529 14.5847 9.74858 13.9153 8.90063 13.9153C8.05282 13.9153 7.34853 14.5846 7.22829 15.4448L5.74932 15.445V13.8802C5.74964 13.784 5.7133 13.6914 5.64834 13.6234C5.58337 13.5554 5.495 13.5173 5.4031 13.5177C5.31165 13.518 5.22405 13.5565 5.1597 13.6244C5.0952 13.6924 5.05917 13.7844 5.05963 13.8802V15.8075C5.06041 16.0058 5.21374 16.1663 5.4031 16.1671H7.26799C7.46104 16.9297 8.11962 17.5 8.90061 17.5C9.68162 17.5 10.3402 16.9299 10.5332 16.1671H16.8239C17.017 16.9297 17.6756 17.5 18.4566 17.5C19.2376 17.5 19.8947 16.9299 20.0872 16.1671H21.6565C21.8458 16.1663 21.9992 16.0058 22 15.8075V12.4541C22 12.4079 21.9915 12.3618 21.975 12.3187L20.6839 8.96827C20.6316 8.83223 20.506 8.74294 20.366 8.74196H15.6008V6.85994C15.6 6.66136 15.4463 6.50065 15.2566 6.50017L5.40326 6.5ZM3.90137 8.78419C3.80992 8.78451 3.72233 8.82303 3.65782 8.89089C3.59348 8.95891 3.55745 9.05095 3.5579 9.14669C3.55853 9.34496 3.712 9.5055 3.90136 9.5063H9.10434C9.19579 9.50662 9.28354 9.46907 9.3485 9.40154C9.41347 9.33416 9.45011 9.24244 9.45041 9.14669C9.45087 9.05046 9.41454 8.95794 9.34942 8.88992C9.28445 8.82189 9.19625 8.78385 9.10433 8.78418L3.90137 8.78419ZM15.6012 9.4641H20.1318L21.1447 12.0945L15.6009 12.0944L15.6012 9.4641ZM2.34623 11.0866C2.25463 11.0863 2.16672 11.124 2.10176 11.1917C2.03679 11.2592 2.00015 11.3511 2 11.447C2.00046 11.5428 2.0371 11.6345 2.10191 11.7019C2.16688 11.7694 2.25478 11.8071 2.34623 11.8066H9.10434C9.19579 11.8071 9.28354 11.7694 9.3485 11.7019C9.41347 11.6345 9.45011 11.5428 9.45041 11.447C9.45026 11.3511 9.41377 11.2592 9.34881 11.1917C9.28384 11.124 9.19594 11.0863 9.10434 11.0866H2.34623ZM15.6012 12.8165H21.3105V15.4448H20.1266C20.0068 14.5845 19.3047 13.9153 18.4569 13.9153C17.6091 13.9153 16.9054 14.5846 16.7852 15.4448H15.6012V12.8165ZM8.87537 14.6373C8.88399 14.6371 8.8923 14.6373 8.90092 14.6373C9.4542 14.6373 9.90112 15.1076 9.90112 15.7056C9.90112 16.3037 9.4542 16.7776 8.90092 16.7776C8.34764 16.7776 7.90072 16.3037 7.90072 15.7056C7.90072 15.117 8.33411 14.6516 8.87537 14.6373ZM18.4313 14.6373C18.4398 14.6371 18.4482 14.6373 18.4567 14.6373C19.0101 14.6373 19.4576 15.1076 19.4576 15.7056C19.4576 16.3037 19.0101 16.7776 18.4567 16.7776C17.9035 16.7776 17.4565 16.3037 17.4565 15.7056C17.4565 15.117 17.89 14.6516 18.4313 14.6373Z" fill="currentcolor"/>
</svg>
