<svg width="16" height="16" viewBox="0 0 16 16" fill="none" xmlns="http://www.w3.org/2000/svg">
    <g clip-path="url(#clip0_903_58)">
        <path d="M8 15L3.78226 10.0257C3.75831 9.9971 3.60816 9.7999 3.60816 9.7999C2.88761 8.85084 2.49832 7.6916 2.50001 6.5C2.50001 5.04131 3.07947 3.64236 4.11092 2.61091C5.14237 1.57946 6.54131 1 8 1C9.4587 1 10.8576 1.57946 11.8891 2.61091C12.9205 3.64236 13.5 5.04131 13.5 6.5C13.5018 7.69111 13.1128 8.84991 12.3926 9.79865L12.3919 9.7999C12.3919 9.7999 12.2419 9.9971 12.2195 10.0236L8 15ZM4.40626 9.1975C4.40676 9.19785 4.52296 9.3516 4.54956 9.3847L8 13.4539L11.455 9.37895C11.477 9.35135 11.5942 9.1965 11.5944 9.1961C12.183 8.42064 12.5012 7.47356 12.5 6.5C12.5 5.30653 12.0259 4.16193 11.182 3.31802C10.3381 2.47411 9.19348 2 8 2C6.80653 2 5.66194 2.47411 4.81802 3.31802C3.97411 4.16193 3.50001 5.30653 3.50001 6.5C3.4989 7.47409 3.81725 8.42167 4.40626 9.1975Z" fill="currentcolor"/>
        <path d="M10.5 9H9.5V5H6.5V9H5.5V5C5.50028 4.73487 5.60572 4.48068 5.7932 4.2932C5.98068 4.10572 6.23487 4.00028 6.5 4H9.5C9.76513 4.00028 10.0193 4.10572 10.2068 4.2932C10.3943 4.48068 10.4997 4.73487 10.5 5V9Z" fill="currentcolor"/>
        <path d="M7.5 8H8.5V9H7.5V8Z" fill="currentcolor"/>
        <path d="M7.5 6H8.5V7H7.5V6Z" fill="currentcolor"/>
    </g>
</svg>