<svg width="24" height="24" viewBox="0 0 24 24" fill="none" xmlns="http://www.w3.org/2000/svg">
    <path
        d="M16.7668 8.8819C16.4312 8.74879 15.899 8.60181 15.241 8.60181C13.5611 8.60181 12.3781 9.49764 12.3708 10.7784C12.3569 11.7233 13.2178 12.2482 13.8617 12.5633C14.5199 12.8852 14.7436 13.0954 14.7436 13.3823C14.7369 13.8231 14.2118 14.0263 13.722 14.0263C13.0428 14.0263 12.6789 13.9215 12.1259 13.6763L11.9019 13.5712L11.6638 15.048C12.0628 15.2298 12.7979 15.3911 13.5611 15.3982C15.346 15.3982 16.5081 14.5162 16.5218 13.1514C16.5286 12.4024 16.074 11.8286 15.0939 11.3596C14.4989 11.0586 14.1346 10.8556 14.1346 10.5476C14.1415 10.2676 14.4427 9.98081 15.1144 9.98081C15.6674 9.96676 16.0737 10.0997 16.3816 10.2327L16.5354 10.3026L16.7668 8.8819Z"
        fill="#00579F" />
    <path
        d="M19.0277 12.9694C19.1678 12.5915 19.7069 11.1286 19.7069 11.1286C19.6998 11.1427 19.8467 10.7437 19.9307 10.4988L20.0496 11.0657C20.0496 11.0657 20.3717 12.6405 20.4417 12.9694C20.1758 12.9694 19.3637 12.9694 19.0277 12.9694ZM21.1275 8.72107H19.8117C19.4059 8.72107 19.0977 8.83995 18.9226 9.26694L16.3958 15.3001H18.1807C18.1807 15.3001 18.4746 14.488 18.5377 14.3132H20.7219C20.7707 14.5441 20.9248 15.3001 20.9248 15.3001H22.4999L21.1275 8.72107Z"
        fill="#00579F" />
    <path d="M10.5999 15.3002H8.8988L9.96282 8.72107H11.6639L10.5999 15.3002Z" fill="#00579F" />
    <path
        d="M7.47793 8.72107L5.81195 13.2074L5.6299 12.2975C5.32189 11.2476 4.35592 10.107 3.27795 9.53978L4.80393 15.2932H6.60284L9.27675 8.72107H7.47793Z"
        fill="#00579F" />
    <path
        d="M4.26497 8.72107H1.528L1.5 8.854C3.63501 9.39996 5.04899 10.716 5.62993 12.2978L5.03494 9.2741C4.93698 8.85391 4.63596 8.73493 4.26497 8.72107Z"
        fill="#FAA61A" />
</svg>