<svg
        viewBox="0 0 10 14"
        width="10"
        height="14"
        fill="none"
        class="sh-atom-icon"
        id="sh-icon-trashcan"
        xmlns="http://www.w3.org/2000/svg"
>
    <title>icon-trashcan</title>
    <path
            d="M9.34973 2.88989H0.635582C0.575113 2.88989 0.514538 2.92018 0.46916 2.96556C0.423782 3.01094 0.408691 3.07151 0.408691 3.13198L1.07438 12.3908C1.11976 13.0111 1.61902 13.5103 2.19393 13.5103H7.79156C8.36648 13.5103 8.86576 13.0261 8.91112 12.3908L9.5767 3.13198C9.5767 3.07151 9.56161 3.01094 9.51623 2.96556C9.48594 2.92018 9.42537 2.88989 9.34981 2.88989H9.34973ZM2.87463 11.483H2.84435C2.70821 11.483 2.57208 11.4225 2.46613 11.3317C2.34508 11.2257 2.26942 11.0594 2.26942 10.893L2.01225 5.56769C1.99716 5.23486 2.23913 4.94738 2.57198 4.91721C2.72331 4.91721 2.87453 4.96258 2.98048 5.06854C3.10153 5.17449 3.17719 5.3408 3.17719 5.50722L3.43437 10.8325C3.44946 11.1654 3.20748 11.4679 2.87463 11.483H2.87463ZM5.58267 10.9536C5.58267 11.241 5.34059 11.4831 5.05312 11.4831H4.94716C4.65969 11.4831 4.4176 11.241 4.4176 10.9536L4.41771 5.4467C4.41771 5.15923 4.65979 4.91714 4.94727 4.91714H5.05322C5.34069 4.91714 5.58278 5.15923 5.58278 5.4467L5.58267 10.9536ZM7.71585 10.893C7.71585 11.0594 7.64019 11.2258 7.51915 11.3317C7.41319 11.4224 7.27706 11.483 7.14093 11.483H7.11064C6.79288 11.4679 6.53572 11.1804 6.5509 10.8325L6.80808 5.5072C6.80808 5.34078 6.88375 5.18944 7.00479 5.06852C7.12583 4.96257 7.26196 4.91719 7.41329 4.91719C7.73105 4.93228 7.98821 5.21974 7.97302 5.56767L7.71585 10.893Z"
            fill="currentColor"
    >
    </path>
    <path
            d="M8.88062 1.04391H6.73225C6.68688 0.46899 6.21791 0 5.62789 0H4.3571C3.76708 0 3.28291 0.453889 3.23755 1.04391H1.10437C0.499275 1.04391 0 1.54316 0 2.14828V2.3147C0 2.43574 0.105953 2.54159 0.226888 2.54159H9.77311C9.89416 2.54159 10 2.43564 10 2.3147V2.14828C10.0001 1.54318 9.50083 1.04391 8.88064 1.04391H8.88062ZM4.35713 0.46899H5.62791C5.96074 0.46899 6.24822 0.726165 6.27839 1.05901H3.70654C3.73682 0.726179 4.02429 0.46899 4.35713 0.46899Z"
            fill="currentColor"
    >
    </path>
</svg>