<svg width="24" height="24" viewBox="0 0 24 24" fill="none" xmlns="http://www.w3.org/2000/svg">
    <g id="IconName=icon-search, IconSize=24">
        <path id="search"
            d="M16.5405 15.0858C17.6081 13.7083 18.2568 11.9797 18.2568 10.1161C18.2568 5.64619 14.6081 2 10.1351 2C5.66216 2 2 5.63268 2 10.1161C2 14.5996 5.64865 18.2323 10.1216 18.2323C12 18.2323 13.7297 17.5841 15.0946 16.5307L20.5676 22L22 20.555L16.5405 15.0858ZM10.1351 16.1931C6.77027 16.1931 4.04054 13.4652 4.04054 10.1026C4.04054 6.74004 6.77027 4.02566 10.1351 4.02566C13.5 4.02566 16.2297 6.75354 16.2297 10.1161C16.2297 13.4787 13.5 16.2066 10.1351 16.2066V16.1931Z"
            fill="currentcolor" />
    </g>
</svg>