<svg width="24" height="24" viewBox="0 0 24 24" fill="none" xmlns="http://www.w3.org/2000/svg">
    <g id="phone">
        <path id="Vector" fill-rule="evenodd" clip-rule="evenodd"
            d="M4.79859 2L9.207 8.32079L5.66006 11.8677C6.46768 13.1199 7.43463 14.3098 8.56244 15.4376C9.69025 16.5654 10.8801 17.5324 12.1322 18.34L15.6793 14.793L22 19.2014L20.2741 20.9273C19.3225 21.8789 17.9257 22.2319 16.6364 21.8466C13.2869 20.8461 10.2861 19.0128 7.63665 16.3634C4.98724 13.714 3.15395 10.7131 2.15333 7.36363C1.76813 6.07424 2.12114 4.67745 3.07269 3.7259L4.79859 2ZM13.2915 19.0324C14.4785 19.6864 15.7184 20.206 17.0111 20.5923C17.8395 20.8396 18.737 20.6129 19.3483 20.0015L19.9688 19.381L15.8296 16.4941L13.2915 19.0324ZM4.96768 10.7085L7.50584 8.17037L4.61899 4.03119L3.99849 4.65169C3.38713 5.26305 3.16033 6.16045 3.40781 6.98887C3.79404 8.28169 4.3136 9.52152 4.96768 10.7085Z"
            fill="currentcolor" />
    </g>
</svg>