<svg width="24" height="24" viewBox="0 0 24 24" fill="none" xmlns="http://www.w3.org/2000/svg">
    <path
        d="M22 11.3035C22 5.85572 18.0546 2 12.4466 2C6.31762 2 2 6.32836 2 12.4726C2 15.6318 3.04218 17.9701 5.37469 19.8607C7.26055 21.403 9.02233 22 11.8015 22C13.4392 22 14.8536 21.7512 16.2432 21.0299L15.6725 19.5622C14.2829 20.1841 13.3648 20.3831 11.8511 20.3831C9.69231 20.3831 8.20347 19.9104 6.66501 18.6915C4.63027 17.0995 3.68734 15.1343 3.68734 12.4229C3.68734 7.32338 7.40943 3.61692 12.5211 3.61692C16.9132 3.61692 20.4119 7.07463 20.4119 11.4527C20.4119 14.0149 19.4194 15.7313 17.4591 16.602C17.0372 16.7761 16.5409 16.9005 16.2184 16.9005C15.4491 16.9005 14.8784 16.4527 14.8784 15.8557C14.8784 15.6318 14.9032 15.2587 14.9777 14.8109L16.268 6.70149C15.2258 6.37811 14.7792 6.25373 14.0099 6.12935C13.4392 6.05473 12.9429 6.00498 12.5211 6.00498C9.24566 6.00498 6.68983 9.61194 6.68983 14.2886C6.68983 16.5274 7.33499 17.9701 8.32754 17.9701C10.0149 17.9701 12.0248 16.3532 13.5136 13.791L13.3896 14.3632C13.2655 14.9104 13.2159 15.4328 13.2159 15.7562C13.2159 17.3483 14.0596 18.1194 15.7965 18.1194C19.6179 18.1194 22 15.5075 22 11.3035ZM14.4069 7.99502L14.1092 9.36318C13.8362 10.6567 13.2903 11.7264 12.2978 13.194C11.8759 13.791 11.5037 14.2886 11.1811 14.6119C10.3871 15.4328 9.74194 15.9055 9.41935 15.9055C8.87345 15.9055 8.65012 15.4328 8.65012 14.3632C8.65012 10.6567 10.3623 7.59701 12.4715 7.59701C13.0422 7.59701 13.5881 7.72139 14.4069 7.99502Z"
        fill="currentcolor" />
</svg>