<svg id="icon-close" width="24" height="24" viewBox="0 0 24 24" fill="none" xmlns="http://www.w3.org/2000/svg">    
    <path fill-rule="evenodd" clip-rule="evenodd" d="M2.20017 2.20018C2.46707 1.93328 2.89979 1.93327 3.16669 2.20017L21.7996 20.8332C22.0664 21.1001 22.0665 21.5328 21.7996 21.7997C21.5327 22.0666 21.0999 22.0666 20.833 21.7997L2.20017 3.1667C1.93328 2.89981 1.93328 2.46708 2.20017 2.20018Z" fill="currentcolor"/>
            <path fill-rule="evenodd" clip-rule="evenodd" d="M21.7998 2.20017C22.0667 2.46707 22.0667 2.8998 21.7998 3.1667L3.16695 21.7998C2.90005 22.0667 2.46733 22.0667 2.20043 21.7998C1.93354 21.5329 1.93354 21.1002 2.20043 20.8333L20.8333 2.20018C21.1002 1.93328 21.5329 1.93327 21.7998 2.20017Z" fill="currentcolor"/>
</svg>