<svg
    width="24"
    height="24"
    viewBox="0 0 24 24"
    fill="none"
    xmlns="http://www.w3.org/2000/svg"
>
    <path
        fill-rule="evenodd"
        clip-rule="evenodd"
        d="M3.91507 6.32177L12 11.9812L20.0849 6.32177C19.9346 6.02448 19.6254 5.81818 19.2727 5.81818H4.72727C4.37458 5.81818 4.06542 6.02448 3.91507 6.32177ZM20.1818 8.47332L12.5213 13.8357C12.2083 14.0548 11.7917 14.0548 11.4787 13.8357L3.81818 8.47332V17.6364C3.81818 18.1343 4.22935 18.5455 4.72727 18.5455H19.2727C19.7707 18.5455 20.1818 18.1343 20.1818 17.6364V8.47332ZM2 6.72727C2 5.2252 3.2252 4 4.72727 4H19.2727C20.7748 4 22 5.2252 22 6.72727V17.6364C22 19.1384 20.7748 20.3636 19.2727 20.3636H4.72727C3.2252 20.3636 2 19.1384 2 17.6364V6.72727Z"
        fill="currentcolor"
    />
</svg>
