<svg width="24" height="24" viewBox="0 0 24 24" fill="none" xmlns="http://www.w3.org/2000/svg">
    <path
        d="M12 2C6.478 2 2 6.478 2 12C2 17.522 6.478 22 12 22C17.522 22 22 17.522 22 12C22 6.478 17.522 2 12 2ZM9.09411 17.1172H6.65867V9.79007H9.09411V17.1172ZM7.87648 8.78956H7.86059C7.04333 8.78956 6.51478 8.22696 6.51478 7.52385C6.51478 6.80485 7.05952 6.25781 7.89263 6.25781C8.72578 6.25781 9.23848 6.80485 9.25433 7.52385C9.25433 8.22696 8.72578 8.78956 7.87648 8.78956ZM17.8759 17.1172H15.4407V13.1974C15.4407 12.2123 15.0881 11.5404 14.2069 11.5404C13.5341 11.5404 13.1334 11.9936 12.9573 12.4311C12.8929 12.5876 12.8772 12.8064 12.8772 13.0254V17.1172H10.4419C10.4419 17.1172 10.4738 10.4775 10.4419 9.79007H12.8772V10.8275C13.2009 10.3283 13.7799 9.61811 15.072 9.61811C16.6744 9.61811 17.8759 10.6653 17.8759 12.9158V17.1172Z"
        fill="currentcolor" />
</svg>